<svg width="888" height="859" viewBox="0 0 888 859" fill="none" xmlns="http://www.w3.org/2000/svg">
<path opacity="0.1" d="M933.126 160.685C933.126 139.817 930.295 119.644 924.634 100.167C918.972 80.6902 908.356 63.6479 892.786 49.0401C877.217 33.7368 855.631 21.9115 828.03 13.5643C800.429 4.52143 764.689 0 720.811 0C672.686 0 621.73 6.95604 567.944 20.8681C514.157 34.0846 460.724 51.4747 407.646 73.0385C354.567 93.9067 303.611 116.862 254.779 141.903C205.946 166.945 162.775 191.291 125.266 214.942C88.4648 238.592 58.7406 259.808 36.0936 278.59C14.1544 297.371 3.18473 310.588 3.18473 318.239C3.18473 329.369 6.72332 338.76 13.8005 346.411C20.8777 353.367 28.3087 356.845 36.0936 356.845C43.1708 356.845 52.725 355.106 64.7562 351.628C76.7874 347.455 89.8802 341.89 104.035 334.934C118.897 327.978 134.466 320.326 150.744 311.979C167.729 302.936 184.714 293.545 201.7 283.807C222.223 271.981 242.393 259.808 262.21 247.288C282.026 234.767 299.719 222.941 315.288 211.812C331.566 200.682 345.013 190.944 355.628 182.596C366.952 174.249 374.029 168.336 376.86 164.858C376.152 160.685 374.029 158.25 370.49 157.555C366.952 156.859 363.413 156.859 359.875 157.555C355.628 159.641 347.843 164.163 336.52 171.119C325.904 178.075 312.458 186.422 296.18 196.161C280.61 205.203 263.625 215.29 245.224 226.419C226.824 236.853 208.069 247.288 188.961 257.722C159.237 274.416 131.636 288.676 106.158 300.501C80.6799 312.327 62.9869 318.239 53.0789 318.239C48.1248 318.239 45.6478 316.5 45.6478 313.022C45.6478 309.544 52.725 302.936 66.8794 293.197C81.0337 283.459 100.142 271.982 124.205 258.765C148.267 244.853 176.576 229.897 209.131 213.898C241.686 197.9 276.718 181.901 314.227 165.902C351.736 149.207 390.66 133.208 431 117.905C471.34 102.602 510.972 89.0374 549.897 77.2121C535.743 92.5154 515.926 114.079 490.449 141.903C465.678 169.728 437.724 201.378 406.584 236.853C376.152 271.634 343.597 309.196 308.919 349.541C274.948 389.886 241.686 430.232 209.131 470.577C183.653 501.879 158.175 534.572 132.697 568.657C107.927 602.742 85.6339 634.739 65.8178 664.65C46.7094 694.561 30.7857 720.994 18.0468 743.949C6.0156 766.209 0 781.86 0 790.903C0 796.468 1.06158 803.076 3.18473 810.727C6.0156 818.379 9.55419 825.683 13.8005 832.639C18.0468 840.291 22.647 846.551 27.601 851.42C33.2627 856.29 38.9245 858.724 44.5862 858.724C49.5403 858.724 56.9713 851.073 66.8794 835.769C77.4951 821.161 88.1109 804.467 98.7267 785.686C110.05 766.904 119.958 749.166 128.451 732.472C137.651 715.777 143.313 705.691 145.436 702.213C145.436 696.648 142.959 694.561 138.005 695.953C135.882 697.344 131.989 700.822 126.328 706.387C121.374 711.256 115.712 716.821 109.342 723.081C103.681 729.342 98.3728 735.254 93.4188 740.819C88.4648 746.384 84.9262 750.21 82.803 752.297L79.6183 750.21C79.6183 748.123 85.28 738.732 96.6035 722.038C108.635 704.648 124.912 682.388 145.436 655.26C166.668 627.436 191.084 595.786 218.685 560.31C246.994 524.834 277.779 487.271 311.042 447.622C349.967 401.016 387.83 357.889 424.631 318.239C462.14 277.894 495.049 242.766 523.357 212.855C551.666 182.944 574.313 158.946 591.298 140.86C608.991 122.774 617.838 112.34 617.838 109.558C617.838 104.689 616.069 97.0369 612.53 86.6028C609.699 75.4731 606.514 67.1258 602.976 61.561C634.823 53.9094 664.901 47.6489 693.21 42.7797C721.519 37.9104 747.704 35.4758 771.767 35.4758C788.752 35.4758 805.383 37.2148 821.661 40.6929C837.938 44.1709 852.446 49.0401 865.185 55.3006C877.924 61.561 887.832 69.5605 894.909 79.2989C902.694 88.3418 906.587 98.4281 906.587 109.558C906.587 133.904 897.033 160.337 877.924 188.857C859.524 216.681 835.461 244.853 805.737 273.373C776.721 301.197 743.812 327.978 707.01 353.715C670.209 379.452 633.762 402.407 597.668 422.58C561.574 442.752 527.604 458.751 495.757 470.577C463.909 482.402 438.431 488.315 419.323 488.315C403.045 488.315 386.06 490.401 368.367 494.575C350.674 498.053 334.397 502.575 319.535 508.139C304.673 513.009 292.288 518.226 282.38 523.79C273.179 529.355 268.579 533.877 268.579 537.355C268.579 545.006 271.41 549.876 277.072 551.962C282.733 554.049 290.164 555.093 299.365 555.093C304.319 555.093 310.688 553.354 318.473 549.876C326.966 546.398 336.52 542.572 347.136 538.398C357.751 534.224 369.075 530.399 381.106 526.921C393.137 523.443 405.169 521.704 417.2 521.704C461.786 521.704 496.818 528.66 522.296 542.572C547.774 556.484 560.513 572.135 560.513 589.525C560.513 609.002 549.897 629.175 528.665 650.043C508.142 670.911 482.31 690.04 451.17 707.43C420.738 724.125 387.829 738.037 352.444 749.166C317.058 760.296 284.857 765.861 255.84 765.861C231.07 765.861 214.439 763.078 205.946 757.514C197.453 751.253 193.207 743.949 193.207 735.602C193.207 725.864 196.038 716.473 201.7 707.43C207.361 697.692 211.962 691.083 215.5 687.605C215.5 685.519 214.792 683.78 213.377 682.388C211.962 680.302 210.192 679.606 208.069 680.302C205.946 682.388 202.407 685.519 197.453 689.692C193.207 693.17 188.607 697.692 183.653 703.256C179.407 708.126 175.514 714.038 171.975 720.994C168.437 727.951 166.668 734.906 166.668 741.863C166.668 749.514 169.852 757.514 176.222 765.861C182.591 774.208 191.084 782.208 201.7 789.859C212.315 797.511 224.347 803.771 237.793 808.641C251.948 813.51 266.456 815.945 281.318 815.945C310.334 815.945 342.182 811.423 376.86 802.38C412.246 793.337 445.155 780.469 475.587 763.774C506.726 747.08 532.558 727.255 553.082 704.3C574.313 680.649 584.929 654.564 584.929 626.044C584.929 595.438 577.852 570.396 563.697 550.919C549.543 530.747 531.85 516.139 510.619 507.096C538.22 500.14 567.59 490.749 598.729 478.924C630.577 467.099 662.07 453.534 693.21 438.231C724.349 422.232 754.427 404.146 783.444 383.974C812.46 363.801 837.938 342.238 859.877 319.283C882.524 295.632 900.217 270.59 912.956 244.157C926.403 217.724 933.126 189.9 933.126 160.685Z" fill="white"/>
</svg>
