<svg width="20" height="20" viewBox="0 0 20 20" fill="none" xmlns="http://www.w3.org/2000/svg">
<path d="M14 4.18623e-06C15.168 -0.000276259 16.3108 0.340386 17.288 0.980199C18.2652 1.62001 19.0345 2.53115 19.5013 3.60185C19.9682 4.67254 20.1124 5.85622 19.9162 7.00768C19.72 8.15914 19.192 9.2283 18.397 10.084L18.207 10.278L9.47999 19.005L9.42699 19.055L9.37099 19.1C8.66007 19.7129 7.74381 20.0344 6.80581 20.0002C5.86782 19.966 4.9774 19.5786 4.313 18.9156C3.6486 18.2526 3.25931 17.363 3.22315 16.4251C3.18698 15.4871 3.50662 14.5702 4.11799 13.858L4.26699 13.694L4.28199 13.683L11.572 6.379C11.7594 6.19123 12.0137 6.08558 12.2789 6.0853C12.5442 6.08502 12.7987 6.19013 12.9865 6.3775C13.1743 6.56488 13.2799 6.81917 13.2802 7.08444C13.2805 7.34971 13.1754 7.60423 12.988 7.792L5.69799 15.096L5.68599 15.104C5.39175 15.4182 5.22595 15.8313 5.22129 16.2617C5.21663 16.6922 5.37345 17.1087 5.66082 17.4292C5.94818 17.7497 6.34522 17.9509 6.77361 17.9931C7.20201 18.0352 7.63065 17.9153 7.97499 17.657L8.09699 17.557L8.09799 17.558L16.8 8.858L16.959 8.693C17.6591 7.92346 18.0319 6.91143 17.9982 5.87161C17.9645 4.83179 17.527 3.84601 16.7785 3.12343C16.03 2.40084 15.0294 1.99829 13.9891 2.0012C12.9487 2.00411 11.9504 2.41224 11.206 3.139L11.051 3.299L11.033 3.311L1.70699 12.641C1.61408 12.7338 1.50379 12.8075 1.38242 12.8577C1.26106 12.9079 1.13098 12.9338 0.999635 12.9337C0.868287 12.9337 0.738234 12.9077 0.616901 12.8574C0.495569 12.8071 0.385334 12.7334 0.292489 12.6405C0.199644 12.5476 0.126009 12.4373 0.075787 12.3159C0.025565 12.1946 -0.00025999 12.0645 -0.000213561 11.9332C-0.000119792 11.6679 0.105348 11.4135 0.292989 11.226L9.60199 1.913L9.64799 1.87C10.2081 1.27846 10.8831 0.807492 11.6316 0.485945C12.3801 0.164397 13.1853 -0.000959288 14 4.18623e-06Z" fill="#AD9D72"/>
</svg>
