<svg width="782" height="766" viewBox="0 0 782 766" fill="none" xmlns="http://www.w3.org/2000/svg">
<path opacity="0.1" d="M781.035 143.886C781.035 125.308 778.515 107.349 773.474 90.0088C768.434 72.669 758.983 57.4966 745.121 44.4917C731.26 30.8676 712.043 20.3398 687.47 12.9085C662.898 4.85784 631.08 0.83252 592.016 0.83252C549.171 0.83252 503.807 7.02531 455.922 19.4109C408.037 31.1772 360.467 46.6592 313.213 65.8569C265.958 84.4353 220.593 104.871 177.119 127.166C133.644 149.46 95.2106 171.134 61.8172 192.19C29.0539 213.245 2.59121 232.133 -17.5708 248.854C-37.1028 265.575 -46.8688 277.341 -46.8688 284.153C-46.8688 294.061 -43.7185 302.422 -37.4178 309.234C-31.1172 315.427 -24.5015 318.523 -17.5708 318.523C-11.2702 318.523 -2.76433 316.975 7.94676 313.878C18.6578 310.163 30.314 305.208 42.9153 299.016C56.1466 292.823 70.008 286.011 84.4995 278.579C99.621 270.529 114.743 262.168 129.864 253.499C148.136 242.971 166.093 232.133 183.735 220.986C201.376 209.839 217.128 199.312 230.989 189.403C245.481 179.495 257.452 170.825 266.903 163.393C276.984 155.962 283.285 150.698 285.805 147.602C285.175 143.886 283.285 141.719 280.134 141.099C276.984 140.48 273.834 140.48 270.683 141.099C266.903 142.957 259.972 146.982 249.891 153.175C240.44 159.368 228.469 166.799 213.978 175.469C200.116 183.52 184.995 192.5 168.613 202.408C152.231 211.697 135.535 220.986 118.523 230.276C92.0603 245.138 67.4878 257.834 44.8055 268.361C22.1232 278.889 6.37159 284.153 -2.4493 284.153C-6.85974 284.153 -9.06496 282.605 -9.06496 279.508C-9.06496 276.412 -2.76432 270.529 9.83694 261.859C22.4382 253.189 39.4499 242.971 60.8721 231.205C82.2943 218.819 107.497 205.504 136.48 191.261C165.463 177.018 196.651 162.774 230.044 148.531C263.438 133.668 298.091 119.425 334.005 105.8C369.918 92.1763 405.202 80.1003 439.855 69.5725C427.254 83.1967 409.612 102.394 386.93 127.166C364.878 151.937 339.99 180.114 312.267 211.697C285.175 242.661 256.192 276.102 225.319 312.02C195.076 347.939 165.463 383.857 136.48 419.775C113.797 447.643 91.1152 476.749 68.4329 507.094C46.3806 537.438 26.5336 565.925 8.89185 592.554C-8.11987 619.183 -22.2963 642.716 -33.6374 663.152C-44.3485 682.969 -49.7041 696.903 -49.7041 704.953C-49.7041 709.908 -48.759 715.791 -46.8688 722.603C-44.3485 729.415 -41.1982 735.917 -37.4178 742.11C-33.6374 748.922 -29.542 754.496 -25.1316 758.831C-20.0911 763.166 -15.0506 765.333 -10.0101 765.333C-5.59961 765.333 1.01606 758.521 9.83694 744.897C19.2879 731.892 28.7388 717.029 38.1898 700.309C48.2708 683.588 57.0917 667.797 64.6525 652.934C72.8433 638.071 77.8838 629.092 79.774 625.995C79.774 621.041 77.5688 619.183 73.1583 620.422C71.2682 621.66 67.8028 624.757 62.7623 629.711C58.3518 634.046 53.3113 639 47.6408 644.574C42.6003 650.147 37.8748 655.411 33.4643 660.365C29.0539 665.32 25.9036 668.726 24.0134 670.583L21.1781 668.726C21.1781 666.868 26.2186 658.507 36.2996 643.645C47.0107 628.163 61.5022 608.346 79.774 584.194C98.6759 559.423 120.413 531.245 144.986 499.662C170.188 468.079 197.596 434.638 227.209 399.339C261.862 357.847 295.571 319.452 328.334 284.153C361.728 248.235 391.025 216.961 416.228 190.332C441.431 163.703 461.593 142.338 476.714 126.237C492.466 110.135 500.342 100.846 500.342 98.3691C500.342 94.0341 498.766 87.222 495.616 77.9328C493.096 68.0243 490.261 60.593 487.11 55.6388C515.463 48.8267 542.241 43.2532 567.443 38.9182C592.646 34.5832 615.958 32.4158 637.38 32.4158C652.502 32.4158 667.308 33.964 681.8 37.0603C696.291 40.1567 709.208 44.4917 720.549 50.0652C731.89 55.6387 740.711 62.7605 747.011 71.4304C753.942 79.481 757.408 88.4606 757.408 98.3691C757.408 120.044 748.902 143.576 731.89 168.967C715.508 193.738 694.086 218.819 667.623 244.209C641.791 268.981 612.493 292.823 579.73 315.736C546.966 338.65 514.518 359.086 482.385 377.045C450.251 395.004 420.008 409.247 391.656 419.775C363.303 430.303 340.62 435.567 323.609 435.567C309.117 435.567 293.996 437.425 278.244 441.14C262.492 444.237 248.001 448.262 234.77 453.216C221.538 457.551 210.512 462.196 201.691 467.15C193.501 472.104 189.405 476.13 189.405 479.226C189.405 486.038 191.925 490.373 196.966 492.231C202.006 494.089 208.622 495.018 216.813 495.018C221.223 495.018 226.894 493.469 233.825 490.373C241.385 487.277 249.891 483.871 259.342 480.155C268.793 476.439 278.874 473.033 289.585 469.937C300.296 466.84 311.007 465.292 321.718 465.292C361.412 465.292 392.601 471.485 415.283 483.871C437.965 496.256 449.306 510.19 449.306 525.672C449.306 543.012 439.855 560.971 420.953 579.549C402.682 598.128 379.684 615.158 351.962 630.64C324.869 645.503 295.571 657.888 264.068 667.797C232.564 677.705 203.897 682.659 178.064 682.659C156.012 682.659 141.205 680.182 133.644 675.228C126.084 669.654 122.303 663.152 122.303 655.721C122.303 647.051 124.824 638.691 129.864 630.64C134.905 621.97 139 616.087 142.15 612.99C142.15 611.133 141.52 609.584 140.26 608.346C139 606.488 137.425 605.869 135.535 606.488C133.644 608.346 130.494 611.133 126.084 614.848C122.303 617.945 118.208 621.97 113.797 626.924C110.017 631.259 106.552 636.523 103.401 642.716C100.251 648.909 98.6759 655.101 98.6759 661.294C98.6759 668.106 101.511 675.228 107.182 682.659C112.852 690.091 120.413 697.212 129.864 704.024C139.315 710.837 150.026 716.41 161.997 720.745C174.599 725.08 187.515 727.247 200.746 727.247C226.579 727.247 254.932 723.222 285.805 715.172C317.308 707.121 346.606 695.664 373.699 680.801C401.422 665.939 424.419 648.289 442.691 627.853C461.593 606.798 471.044 583.575 471.044 558.184C471.044 530.936 464.743 508.642 452.142 491.302C439.54 473.343 423.789 460.338 404.887 452.287C429.459 446.095 455.607 437.734 483.33 427.206C511.683 416.679 539.72 404.603 567.443 390.979C595.166 376.735 621.944 360.634 647.776 342.675C673.609 324.716 696.291 305.518 715.823 285.082C735.985 264.026 751.737 241.732 763.078 218.2C775.049 194.667 781.035 169.896 781.035 143.886Z" fill="white"/>
</svg>
