<svg width="260" height="260" viewBox="0 0 260 260" fill="none" xmlns="http://www.w3.org/2000/svg">
<g opacity="0.5">
<path d="M101.973 245.658C100.577 245.058 99.5491 244.117 98.8876 242.835C98.2034 241.548 98.0121 240.173 98.3136 238.71C98.7281 236.698 99.7293 235.237 101.317 234.327C102.9 233.44 104.966 233.262 107.515 233.792L117.108 235.787L112.119 260L102.697 258.041C100.284 257.539 98.5538 256.607 97.5055 255.244C96.4297 253.9 96.0873 252.279 96.4783 250.381C96.7939 248.849 97.449 247.686 98.4434 246.891C99.4331 246.12 100.61 245.708 101.973 245.658ZM110.375 248.765L105.562 247.764C104.196 247.48 103.095 247.584 102.257 248.078C101.397 248.567 100.849 249.383 100.614 250.526C100.383 251.646 100.566 252.602 101.162 253.394C101.736 254.181 102.751 254.726 104.207 255.029L108.884 256.001L110.375 248.765ZM107.636 237.179C106.157 236.872 104.95 236.966 104.017 237.464C103.057 237.979 102.451 238.843 102.202 240.055C101.952 241.267 102.166 242.301 102.844 243.157C103.522 244.013 104.601 244.595 106.08 244.903L110.962 245.918L112.552 238.201L107.636 237.179Z" fill="white"/>
<path d="M78.3395 246.671L81.5428 239.902L73.3569 235.992L74.6742 233.208L82.8601 237.118L86.1384 230.191L77.0079 225.83L78.4 222.888L91.1197 228.964L80.5515 251.295L67.8318 245.219L69.209 242.309L78.3395 246.671Z" fill="white"/>
<path d="M53.5431 212.77C54.3015 211.825 55.235 211.126 56.3437 210.675C57.4379 210.241 58.6432 210.153 59.9599 210.409C61.2765 210.665 62.6044 211.336 63.9434 212.42C65.2462 213.475 66.2311 214.647 66.8979 215.937C67.5501 217.245 67.8484 218.566 67.7927 219.9C67.737 221.235 67.3168 222.484 66.5322 223.648L63.2208 220.967C63.8013 220.057 64.0245 219.053 63.8906 217.955C63.7385 216.843 63.1378 215.861 62.0883 215.011C61.1473 214.25 60.2193 213.918 59.3043 214.017C58.3711 214.101 57.5837 214.543 56.942 215.343C56.3877 216.033 56.1256 216.751 56.1556 217.495C56.1709 218.257 56.357 218.992 56.7138 219.701C57.0705 220.41 57.6062 221.323 58.3208 222.442C59.2088 223.791 59.8796 224.964 60.3334 225.961C60.769 226.943 60.9575 228.011 60.8988 229.163C60.8402 230.315 60.3368 231.482 59.3888 232.663C58.5575 233.699 57.5749 234.403 56.4411 234.775C55.3073 235.146 54.1021 235.16 52.8258 234.816C51.5348 234.491 50.274 233.829 49.0436 232.833C47.0893 231.251 45.9214 229.525 45.5398 227.657C45.1401 225.774 45.4714 224.003 46.5337 222.344L49.8723 225.047C49.4155 225.877 49.2635 226.773 49.416 227.737C49.5359 228.703 50.0754 229.575 51.0344 230.352C51.903 231.055 52.782 231.392 53.6713 231.362C54.5461 231.351 55.319 230.927 55.9899 230.091C56.515 229.437 56.7716 228.745 56.7597 228.015C56.7333 227.304 56.5507 226.602 56.212 225.907C55.8407 225.217 55.3068 224.32 54.6103 223.216C53.7042 221.852 53.0316 220.663 52.5924 219.648C52.1206 218.636 51.9213 217.545 51.9946 216.375C52.0497 215.19 52.5659 213.988 53.5431 212.77Z" fill="white"/>
<path d="M21.8215 203.012L24.3695 201.055L28.5405 206.536L45.5457 193.476L47.9806 196.676L30.9754 209.736L35.1253 215.189L32.5773 217.146L21.8215 203.012Z" fill="white"/>
<path d="M19.134 170.968C18.1383 171.29 17.292 171.391 16.595 171.273C15.8688 171.14 15.284 170.838 14.8407 170.368C14.3902 169.876 14.0547 169.285 13.8343 168.596C13.6138 167.907 13.5474 167.242 13.6351 166.6C13.7228 165.959 14.023 165.371 14.5359 164.838C15.0266 164.311 15.7698 163.887 16.7655 163.566C17.739 163.252 18.5889 163.161 19.3151 163.294C20.0192 163.435 20.604 163.737 21.0695 164.199C21.5128 164.669 21.8447 165.249 22.0652 165.938C22.2857 166.627 22.3556 167.303 22.275 167.967C22.1652 168.616 21.8649 169.203 21.3742 169.73C20.8543 170.241 20.1075 170.654 19.134 170.968Z" fill="white"/>
<path d="M25.1203 121.698L15.0468 127.453L14.9314 130.288L24.7543 130.691L24.5919 134.68L0 133.67L0.354615 124.957C0.469497 122.134 1.24141 120.028 2.67037 118.637C4.10027 117.224 5.94148 116.563 8.194 116.656C10.1214 116.735 11.6782 117.348 12.8643 118.495C14.0514 119.619 14.7773 121.214 15.0421 123.282L25.3026 117.218L25.1203 121.698ZM12.11 130.172L12.2894 125.763C12.4205 122.543 11.0694 120.875 8.23637 120.759C6.8895 120.703 5.82838 121.057 5.053 121.82C4.25535 122.558 3.82282 123.756 3.75541 125.412L3.57596 129.821L12.11 130.172Z" fill="white"/>
<path d="M7.60143 98.0195L14.7702 100.095L17.2799 91.3448L20.2278 92.1981L17.7181 100.948L25.0543 103.072L27.8536 93.3123L30.969 94.2141L27.0693 107.81L3.41912 100.964L7.31884 87.3677L10.4007 88.2599L7.60143 98.0195Z" fill="white"/>
<path d="M36.8667 67.9296C37.9184 68.5278 38.7561 69.3397 39.38 70.3653C39.9837 71.3794 40.2666 72.5598 40.2287 73.9067C40.1908 75.2535 39.7482 76.6787 38.9009 78.1823C38.0765 79.6452 37.0852 80.812 35.9269 81.6826C34.7484 82.5416 33.4993 83.052 32.1797 83.2137C30.86 83.3754 29.5648 83.162 28.2941 82.5734L30.3894 78.8551C31.377 79.2826 32.3992 79.3408 33.4559 79.0295C34.5241 78.698 35.3902 77.943 36.0543 76.7645C36.6497 75.7079 36.8246 74.7341 36.5789 73.8431C36.3446 72.9318 35.7826 72.2231 34.8927 71.7169C34.1241 71.2798 33.3769 71.1366 32.6511 71.2872C31.905 71.4263 31.2129 71.7303 30.5748 72.1991C29.9367 72.668 29.1265 73.3475 28.1441 74.2376C26.9637 75.3371 25.9207 76.1927 25.015 76.8046C24.1209 77.3961 23.1032 77.7564 21.9622 77.8855C20.8211 78.0146 19.5933 77.7053 18.2787 76.9576C17.1258 76.302 16.2749 75.4424 15.7258 74.3788C15.1767 73.3153 14.9673 72.1229 15.0975 70.8018C15.2075 69.4691 15.6518 68.112 16.4304 66.7303C17.667 64.5359 19.1719 63.0977 20.9449 62.4158C22.7294 61.7136 24.5226 61.7542 26.3246 62.5375L24.2121 66.2863C23.3229 65.9684 22.4177 65.9634 21.4965 66.2712C20.5664 66.5471 19.798 67.2236 19.1912 68.3005C18.6416 69.2758 18.4535 70.2018 18.6271 71.0786C18.7805 71.9439 19.3223 72.6412 20.2527 73.1703C20.9808 73.5844 21.702 73.7263 22.4164 73.596C23.1106 73.4542 23.771 73.159 24.3977 72.7105C25.0155 72.2302 25.8099 71.5551 26.7808 70.6853C27.9727 69.5655 29.0316 68.7054 29.9574 68.1051C30.8745 67.473 31.9137 67.0981 33.0749 66.9805C34.2477 66.8425 35.5116 67.1589 36.8667 67.9296Z" fill="white"/>
<path d="M41.2952 34.899L43.6313 37.1067L38.9258 42.1323L54.517 56.8662L51.7701 59.7999L36.1789 45.066L31.4972 50.066L29.161 47.8583L41.2952 34.899Z" fill="white"/>
<path d="M75.6031 33.6556L66.8065 39.2082L68.0501 44.7516L64.4488 47.0248L59.2336 21.5698L63.1006 19.1289L83.636 34.9135L80.0348 37.1867L75.6031 33.6556ZM73.0263 31.6422L63.4521 24.0359L66.1189 36.0023L73.0263 31.6422Z" fill="white"/>
<path d="M87.9978 6.90148L92.1129 20.9818C92.7284 23.0877 93.6438 24.5211 94.8593 25.2819C96.0971 26.0362 97.5522 26.1666 99.2247 25.6733C100.875 25.1865 102.007 24.293 102.62 22.9928C103.255 21.686 103.265 19.9797 102.65 17.8738L98.5345 3.79344L102.348 2.66863L106.463 16.749C107.412 19.9974 107.296 22.7084 106.115 24.882C104.927 27.0331 102.961 28.5133 100.219 29.3223C97.498 30.1248 95.0703 29.9405 92.9356 28.7695C90.7943 27.576 89.249 25.3551 88.2996 22.1066L84.1845 8.02629L87.9978 6.90148Z" fill="white"/>
<path d="M132.434 24.6376L126.099 14.8889L123.276 14.9467L123.476 24.8212L119.503 24.9026L119.001 0.181428L127.679 0.0035445C130.491 -0.0540831 132.631 0.590985 134.1 1.93875C135.592 3.28604 136.361 5.09186 136.407 7.35622C136.446 9.29376 135.932 10.8923 134.865 12.152C133.821 13.4111 132.281 14.2367 130.243 14.6288L136.895 24.5462L132.434 24.6376ZM123.218 12.1104L127.61 12.0204C130.816 11.9547 132.391 10.4979 132.333 7.6499C132.305 6.29595 131.889 5.25357 131.084 4.52276C130.301 3.76812 129.085 3.40772 127.435 3.44153L123.044 3.53154L123.218 12.1104Z" fill="white"/>
<path d="M161.893 23.9025L151.814 21.3731L148.695 26.1136L144.568 25.078L159.234 3.66945L163.665 4.78137L166.553 30.5952L162.427 29.5597L161.893 23.9025ZM161.554 20.6408L160.385 8.43457L153.64 18.6546L161.554 20.6408Z" fill="white"/>
<path d="M191.398 43.895L187.959 41.8929L186.722 20.0819L177.614 35.869L174.175 33.8669L186.5 12.5043L189.938 14.5064L191.141 36.378L200.284 20.5303L203.722 22.5325L191.398 43.895Z" fill="white"/>
<path d="M227.947 44.1867L225.679 46.4652L220.822 41.5866L205.687 56.7929L202.852 53.945L217.987 38.7387L213.156 33.8849L215.423 31.6064L227.947 44.1867Z" fill="white"/>
<path d="M234.831 75.5914C235.776 75.1403 236.601 74.927 237.308 74.9516C238.045 74.9872 238.665 75.2085 239.166 75.6154C239.677 76.0434 240.088 76.5842 240.397 77.2379C240.706 77.8916 240.86 78.5422 240.857 79.1897C240.855 79.8372 240.635 80.4594 240.196 81.0564C239.779 81.6434 239.099 82.1624 238.154 82.6135C237.23 83.0546 236.4 83.2573 235.663 83.2216C234.946 83.176 234.327 82.9547 233.804 82.5578C233.303 82.1509 232.898 81.6206 232.589 80.9669C232.279 80.3132 232.121 79.6521 232.113 78.9835C232.137 78.326 232.357 77.7038 232.774 77.1168C233.222 76.5409 233.908 76.0324 234.831 75.5914Z" fill="white"/>
<path d="M259.962 121.861C260.157 124.796 259.599 127.29 258.291 129.343C256.983 131.396 255.109 132.82 252.669 133.615L252.392 129.421C253.678 128.797 254.675 127.842 255.381 126.554C256.09 125.29 256.388 123.819 256.277 122.142C256.176 120.604 255.725 119.242 254.924 118.055C254.125 116.892 253.041 116.005 251.673 115.394C250.307 114.807 248.731 114.573 246.945 114.692C245.067 114.817 243.478 115.274 242.179 116.063C240.881 116.852 239.913 117.899 239.278 119.205C238.667 120.533 238.417 122.036 238.528 123.713C238.663 125.763 239.406 127.48 240.755 128.864C242.128 130.247 243.926 131.016 246.149 131.172L245.55 122.121L248.472 121.926L249.292 134.332L245.501 134.585C243.674 134.426 241.984 133.884 240.432 132.958C238.905 132.053 237.645 130.792 236.653 129.173C235.662 127.578 235.096 125.709 234.954 123.566C234.795 121.166 235.189 119.01 236.134 117.098C237.079 115.187 238.457 113.667 240.269 112.54C242.105 111.411 244.24 110.766 246.675 110.603C249.11 110.441 251.299 110.797 253.244 111.674C255.212 112.549 256.778 113.86 257.941 115.607C259.13 117.377 259.804 119.461 259.962 121.861Z" fill="white"/>
<path d="M232.075 157.32L242.985 153.396L243.585 150.623L233.979 148.525L234.823 144.623L258.874 149.878L257.029 158.399C256.431 161.16 255.31 163.101 253.663 164.223C252.012 165.368 250.085 165.699 247.883 165.218C245.998 164.806 244.569 163.933 243.598 162.597C242.621 161.285 242.18 159.588 242.274 157.505L231.127 161.701L232.075 157.32ZM246.345 151.226L245.411 155.538C244.73 158.687 245.774 160.564 248.545 161.169C249.862 161.457 250.968 161.292 251.863 160.675C252.775 160.086 253.407 158.982 253.757 157.362L254.691 153.05L246.345 151.226Z" fill="white"/>
<path d="M244.599 192.849C243.508 194.857 242.053 196.413 240.235 197.518C238.405 198.643 236.394 199.202 234.199 199.195C232.014 199.221 229.861 198.652 227.739 197.488C225.618 196.324 223.967 194.807 222.786 192.936C221.614 191.096 220.995 189.094 220.927 186.928C220.868 184.795 221.385 182.724 222.476 180.715C223.578 178.686 225.044 177.109 226.874 175.985C228.712 174.891 230.724 174.332 232.909 174.307C235.114 174.293 237.278 174.868 239.399 176.031C241.521 177.195 243.162 178.707 244.322 180.567C245.503 182.438 246.123 184.44 246.182 186.574C246.229 188.728 245.701 190.82 244.599 192.849ZM241.355 191.07C242.113 189.676 242.47 188.263 242.428 186.83C242.386 185.397 241.94 184.049 241.091 182.785C240.231 181.542 239.016 180.489 237.445 179.628C235.874 178.766 234.336 178.308 232.83 178.254C231.312 178.22 229.943 178.572 228.72 179.311C227.497 180.051 226.507 181.117 225.75 182.511C225.004 183.884 224.657 185.277 224.711 186.689C224.753 188.122 225.204 189.46 226.064 190.704C226.913 191.967 228.123 193.03 229.694 193.891C231.265 194.753 232.809 195.201 234.326 195.235C235.832 195.289 237.196 194.947 238.419 194.208C239.631 193.489 240.609 192.443 241.355 191.07Z" fill="white"/>
<path d="M225.184 219.622L214.96 209.141C213.431 207.574 211.952 206.742 210.523 206.645C209.078 206.564 207.733 207.136 206.488 208.362C205.259 209.571 204.679 210.895 204.747 212.332C204.798 213.785 205.588 215.296 207.117 216.863L217.341 227.344L214.503 230.139L204.279 219.658C201.92 217.24 200.753 214.793 200.778 212.316C200.819 209.856 201.861 207.622 203.902 205.611C205.927 203.618 208.156 202.633 210.588 202.658C213.036 202.699 215.44 203.929 217.799 206.347L228.023 216.828L225.184 219.622Z" fill="white"/>
<path d="M190.175 228.909L185.468 220.559L188.927 218.591L201.053 240.108L193.773 244.25C191.305 245.653 189.123 246.117 187.225 245.64C185.307 245.175 183.769 243.916 182.613 241.864C181.468 239.832 181.2 237.865 181.81 235.962C182.432 234.079 183.946 232.453 186.352 231.084L190.175 228.909ZM188.314 233.711C185.462 235.333 184.735 237.383 186.132 239.862C186.819 241.081 187.684 241.81 188.726 242.049C189.76 242.319 191.026 242.029 192.522 241.178L195.98 239.211L191.772 231.744L188.314 233.711Z" fill="white"/>
<path d="M154.254 246.62C154.429 247.656 154.409 248.512 154.194 249.188C153.959 249.891 153.579 250.43 153.053 250.804C152.504 251.182 151.874 251.431 151.164 251.553C150.453 251.674 149.788 251.646 149.169 251.467C148.549 251.289 148.013 250.907 147.56 250.321C147.112 249.758 146.799 248.959 146.624 247.923C146.453 246.91 146.484 246.052 146.719 245.349C146.957 244.669 147.338 244.13 147.86 243.733C148.386 243.359 149.004 243.111 149.714 242.99C150.425 242.869 151.101 242.895 151.744 243.07C152.367 243.271 152.903 243.653 153.352 244.216C153.782 244.806 154.083 245.607 154.254 246.62Z" fill="white"/>
</g>
<path d="M103.567 129.174C105.962 129.919 107.785 131.003 109.034 132.425C110.3 133.831 110.933 135.524 110.933 137.505C110.933 139.198 110.642 140.671 110.061 141.924C109.496 143.177 108.623 144.209 107.443 145.022C106.279 145.818 104.901 146.402 103.31 146.774C101.736 147.147 99.7251 147.333 97.2781 147.333H81.4667V145.657C82.0998 145.488 82.5961 145.31 82.9554 145.124C83.3319 144.92 83.6057 144.65 83.7768 144.311C83.965 143.955 84.0848 143.515 84.1361 142.99C84.1875 142.449 84.2131 141.771 84.2131 140.959V119.067C84.2131 118.271 84.1875 117.602 84.1361 117.06C84.1019 116.518 83.9907 116.078 83.8024 115.74C83.6313 115.401 83.3575 115.13 82.9811 114.927C82.6217 114.707 82.1169 114.512 81.4667 114.343V112.667H98.2791C100.196 112.667 101.761 112.76 102.976 112.946C104.585 113.2 105.979 113.64 107.16 114.267C108.221 114.825 109.051 115.621 109.65 116.654C110.249 117.687 110.548 118.914 110.548 120.336C110.548 124.163 108.221 127.033 103.567 128.946V129.174ZM95.584 127.854C97.2952 127.854 98.6385 127.608 99.6138 127.117C100.589 126.626 101.325 125.932 101.821 125.035C102.335 124.12 102.591 122.868 102.591 121.276C102.591 119.871 102.318 118.762 101.77 117.949C101.222 117.119 100.444 116.527 99.4342 116.171C98.4246 115.816 97.1668 115.638 95.661 115.638C94.4632 115.638 93.2995 115.68 92.1702 115.765V127.854H95.584ZM92.1702 144.286C93.1798 144.336 94.3434 144.362 95.661 144.362C97.2866 144.362 98.6213 144.167 99.6652 143.778C100.726 143.371 101.547 142.677 102.129 141.695C102.711 140.696 103.002 139.333 103.002 137.606C103.002 136.387 102.848 135.346 102.54 134.482C102.232 133.602 101.77 132.899 101.154 132.374C100.538 131.833 99.8021 131.443 98.9465 131.206C98.0909 130.952 97.0214 130.825 95.738 130.825H92.1702V144.286Z" fill="#AD9D72"/>
<path d="M128.1 147.333H114.4V145.657C115.044 145.488 115.548 145.31 115.914 145.124C116.296 144.92 116.575 144.65 116.749 144.311C116.94 143.955 117.062 143.515 117.114 142.99C117.166 142.449 117.192 141.771 117.192 140.959V119.067C117.192 118.271 117.166 117.602 117.114 117.06C117.079 116.518 116.966 116.078 116.775 115.74C116.601 115.401 116.322 115.13 115.94 114.927C115.574 114.707 115.061 114.512 114.4 114.343V112.667H129.614C131.667 112.667 133.407 112.81 134.833 113.098C136.277 113.369 137.539 113.792 138.617 114.368C139.522 114.842 140.287 115.443 140.914 116.171C141.54 116.882 142.018 117.72 142.349 118.686C142.697 119.634 142.871 120.743 142.871 122.013C142.871 123.672 142.566 125.094 141.957 126.279C141.366 127.464 140.557 128.455 139.531 129.251C138.521 130.029 137.164 130.766 135.46 131.46V131.714C136.747 132.256 137.808 132.984 138.643 133.898C139.496 134.796 140.261 135.938 140.94 137.327L142.584 140.781C143.314 142.322 144.036 143.481 144.75 144.26C145.48 145.022 146.342 145.488 147.333 145.657V147.333H137.286C136.277 145.979 135.138 143.964 133.868 141.289L131.832 136.946C131.223 135.659 130.701 134.745 130.266 134.203C129.831 133.661 129.379 133.289 128.909 133.086C128.457 132.882 127.752 132.781 126.796 132.781H125.282V140.959C125.282 142.228 125.343 143.117 125.465 143.625C125.587 144.133 125.821 144.54 126.169 144.844C126.517 145.149 127.161 145.42 128.1 145.657V147.333ZM125.282 115.689V129.809H127.866C129.257 129.809 130.406 129.632 131.31 129.276C132.215 128.904 132.928 128.396 133.45 127.752C133.989 127.092 134.355 126.322 134.546 125.441C134.755 124.561 134.859 123.596 134.859 122.546C134.859 120.243 134.303 118.516 133.189 117.365C132.076 116.214 130.423 115.638 128.231 115.638C126.735 115.638 125.752 115.655 125.282 115.689Z" fill="#AD9D72"/>
<path d="M175.468 113.982V121.029H171.996C171.608 119.64 171.16 118.572 170.654 117.828C170.164 117.067 169.522 116.505 168.728 116.141C167.951 115.76 166.946 115.57 165.713 115.57C164.041 115.57 162.563 116.074 161.279 117.084C159.995 118.076 158.982 119.673 158.239 121.873C157.495 124.057 157.124 126.828 157.124 130.186C157.124 133.081 157.369 135.596 157.859 137.73C158.365 139.847 159.125 141.493 160.139 142.668C161.169 143.843 162.436 144.43 163.939 144.43C165.426 144.43 166.524 144 167.233 143.139C167.943 142.263 168.297 140.873 168.297 138.97V138.028C168.297 136.77 168.255 135.877 168.171 135.347C168.086 134.802 167.951 134.396 167.765 134.132C167.596 133.867 167.368 133.652 167.081 133.486C166.794 133.321 166.287 133.131 165.561 132.916V131.278H178.533V132.916C177.689 133.164 177.114 133.445 176.81 133.759C176.506 134.074 176.295 134.496 176.177 135.025C176.076 135.538 176.025 136.266 176.025 137.209V146.564L172.376 147.308L170.654 145.522C168.644 146.729 166.338 147.333 163.737 147.333C158.804 147.333 155.122 145.927 152.69 143.115C150.274 140.286 149.067 136.009 149.067 130.285C149.067 127.274 149.497 124.627 150.359 122.344C151.22 120.061 152.411 118.209 153.931 116.786C155.468 115.347 157.191 114.304 159.1 113.659C161.026 112.997 163.086 112.667 165.282 112.667C168.981 112.667 172.376 113.105 175.468 113.982Z" fill="#AD9D72"/>
</svg>
