<svg width="73" height="68" viewBox="0 0 73 68" fill="none" xmlns="http://www.w3.org/2000/svg">
<path fill-rule="evenodd" clip-rule="evenodd" d="M72.9933 33.9164C73.065 39.7666 72.5632 50.5256 72.2047 56.3086C71.8463 62.0915 71.7029 62.9657 71.2728 63.7726C70.8427 64.5123 70.0541 65.1847 69.1939 65.4537C68.3337 65.7227 67.3301 65.6555 65.3946 62.6295C63.459 59.5363 60.5916 53.4843 57.8675 49.248C55.1435 45.0116 52.6345 42.6581 51.7025 41.246C50.7706 39.8339 51.4158 39.4304 53.2796 37.951C55.1435 36.4717 58.226 33.8492 61.0217 31.7646C63.8175 29.6801 66.1831 28.0662 67.9036 27.1921C69.624 26.3179 70.556 26.1834 71.3445 26.6541C72.2047 26.9903 72.8499 28.0662 72.9933 33.9164Z" fill="#AD9B70"/>
<path fill-rule="evenodd" clip-rule="evenodd" d="M49.6236 36.068C52.1326 41.7165 57.2223 52.6772 60.0181 58.6619C62.7421 64.6466 63.1006 65.5207 63.1006 66.1932C63.1006 66.8656 62.8138 67.2018 60.5916 67.3363C58.3693 67.4708 54.1398 67.4708 51.6308 67.4708C49.1218 67.4708 48.3333 67.4036 47.473 67.0674C46.6128 66.7311 45.6809 66.0587 45.1791 65.5207C44.6773 64.9156 44.6056 64.4449 44.3189 58.7291C44.0321 53.0134 43.4586 41.9855 43.4586 36.337C43.4586 30.6885 44.0321 30.4195 44.8207 30.2851C45.5375 30.0833 46.4694 30.0161 46.8995 30.0833C47.258 30.1506 47.1146 30.4195 49.6236 36.068Z" fill="#AD9B70"/>
<path fill-rule="evenodd" clip-rule="evenodd" d="M37.58 33.1768C35.7879 35.4631 32.7054 39.6322 29.6229 45.0117C26.5404 50.3912 23.3145 56.9138 21.7374 60.6122C20.1603 64.3106 20.1603 65.1848 20.3754 65.8572C20.6621 66.5296 21.1639 67.0676 23.3862 67.2693C25.6085 67.4711 29.5512 67.3366 32.4903 67.2693C35.4294 67.2021 37.4366 67.2693 38.8704 66.9331C40.3041 66.5969 41.0926 65.9245 41.4511 64.3106C41.8095 62.764 41.6661 60.276 41.5227 54.6275C41.3794 48.979 41.0926 40.2374 40.9493 35.5303C40.8059 30.8905 40.7342 30.3525 40.3758 30.3525C39.9456 30.4198 39.3722 30.8905 37.58 33.1768Z" fill="#AD9B70"/>
<path fill-rule="evenodd" clip-rule="evenodd" d="M49.1217 26.6543C51.2006 26.7888 55.7885 27.0578 60.0897 26.1164C64.3909 25.1749 68.3336 22.9559 70.2691 21.3421C72.2046 19.7282 72.0612 18.6523 71.9179 16.2988C71.7745 13.9452 71.7028 10.3813 71.4878 7.96056C71.2727 5.53978 70.9143 4.26215 70.1257 3.32074C69.3372 2.37933 68.0468 1.70689 65.1794 1.43792C62.312 1.23619 57.8674 1.23619 55.215 1.43792C52.5627 1.57241 51.7024 1.84138 50.9856 2.58106C50.2687 3.32074 49.7669 4.46389 48.7633 6.61568C47.7597 8.76748 46.326 11.7934 44.7489 15.4246C43.1718 19.0558 41.523 23.2249 41.1646 25.3767C40.8062 27.5285 41.8098 27.7302 43.1001 27.5957C44.3905 27.4612 46.1109 27.125 46.7561 26.856C47.4013 26.5871 47.0428 26.5198 49.1217 26.6543Z" fill="#AD9B70"/>
<path fill-rule="evenodd" clip-rule="evenodd" d="M37.0066 26.385C38.2253 24.0987 39.9457 20.4003 41.4512 16.9709C42.9566 13.5415 44.3186 10.3138 45.1071 8.09473C45.8957 5.87569 46.0391 4.53082 45.824 3.58941C45.5373 2.64799 44.8921 1.97556 44.3186 1.50485C43.7451 1.10139 43.315 0.832414 40.5192 0.76517C37.7235 0.697927 32.4904 0.76517 29.9097 1.30312C27.329 1.77383 27.329 2.71524 27.7591 5.13601C28.2609 7.55678 29.1928 11.4569 30.2681 16.164C31.2717 20.9383 32.4187 26.5195 33.1356 29.0075C33.8524 31.4955 34.1392 30.9576 34.641 30.2179C35.0711 29.5455 35.788 28.6713 37.0066 26.385Z" fill="#AD9B70"/>
<path fill-rule="evenodd" clip-rule="evenodd" d="M24.9633 5.67413C24.3898 3.99303 24.0314 2.58092 23.3862 1.90848C22.6694 1.1688 21.6658 1.1688 19.2284 1.23604C16.7911 1.23604 12.8484 1.30329 10.8412 1.63951C8.90566 1.97572 8.90566 2.58092 9.40746 3.85855C9.98095 5.20342 11.0562 7.22073 13.4936 11.1881C15.9309 15.1555 19.7302 21.0729 22.3109 25.242C24.8916 29.3439 26.182 31.6302 27.4006 32.5044C28.6193 33.3113 29.6946 32.7061 30.1247 31.6302C30.5548 30.5543 30.4114 29.0749 29.7663 25.6455C29.1211 22.1488 27.9741 16.7021 27.0422 13.0709C26.182 9.23804 25.4651 7.35522 24.9633 5.67413Z" fill="#AD9B70"/>
<path fill-rule="evenodd" clip-rule="evenodd" d="M22.1677 31.8989C21.5226 29.6798 19.2286 25.04 16.2178 19.8623C13.207 14.6845 9.55101 9.03603 7.32874 6.07731C5.10648 3.11858 4.38962 2.84961 3.4577 2.84961C2.52579 2.84961 1.37881 3.11858 0.733636 4.06C0.088462 5.00141 -0.05491 6.61526 0.016776 10.9189C0.088462 15.2224 0.30352 22.283 0.446892 26.5866C0.590264 30.823 0.733636 32.3023 4.10288 33.042C7.47212 33.7817 14.2106 33.7817 18.01 33.849C21.8093 33.9162 22.8129 34.1179 22.1677 31.8989Z" fill="#AD9B70"/>
<path fill-rule="evenodd" clip-rule="evenodd" d="M24.1032 38.4218C22.0243 40.1029 18.7268 42.7254 14.9991 44.9444C11.2714 47.1635 7.18532 49.1135 4.74799 50.5257C2.31067 51.9378 1.59381 52.8119 1.23538 54.6275C0.876951 56.4431 0.948637 59.1329 1.02032 60.8812C1.1637 62.6295 1.30707 63.5037 2.02393 64.3779C2.6691 65.252 3.81608 66.1262 6.03834 66.4624C8.26061 66.7986 11.5582 66.7314 13.6371 65.8572C15.7876 64.9831 16.7196 63.3692 19.3002 58.3259C21.8809 53.2827 26.1104 44.7427 27.7592 40.3046C29.4797 35.8665 28.6911 35.5303 27.8309 35.732C27.114 35.9338 26.2538 36.7407 24.1032 38.4218Z" fill="#AD9B70"/>
<path fill-rule="evenodd" clip-rule="evenodd" d="M17.0063 40.1701C14.1388 41.9856 9.83767 44.7426 7.18529 46.2892C4.46122 47.8358 3.45762 48.1721 2.74076 48.2393C2.0239 48.2393 1.66547 47.9703 1.45041 46.1548C1.23535 44.3392 1.09198 41.0442 1.16367 39.1614C1.16367 37.2786 1.37873 36.7406 4.17448 36.6734C6.97023 36.6061 12.4901 36.9424 16.0027 37.0096C19.5153 37.0769 21.0924 36.8751 21.2357 37.2113C21.1641 37.5476 19.802 38.3545 17.0063 40.1701Z" fill="#AD9B70"/>
<path d="M37.7235 62.3604C53.362 62.3604 66.0395 50.4986 66.0395 35.8663C66.0395 21.2341 53.362 9.37231 37.7235 9.37231C22.0851 9.37231 9.40759 21.2341 9.40759 35.8663C9.40759 50.4986 22.0851 62.3604 37.7235 62.3604Z" fill="url(#paint0_linear_243_715)"/>
<mask id="mask0_243_715" style="mask-type:alpha" maskUnits="userSpaceOnUse" x="9" y="9" width="58" height="54">
<path d="M37.7235 62.3604C53.362 62.3604 66.0395 50.4986 66.0395 35.8663C66.0395 21.2341 53.362 9.37231 37.7235 9.37231C22.0851 9.37231 9.40759 21.2341 9.40759 35.8663C9.40759 50.4986 22.0851 62.3604 37.7235 62.3604Z" fill="url(#paint1_linear_243_715)"/>
</mask>
<g mask="url(#mask0_243_715)">
<path fill-rule="evenodd" clip-rule="evenodd" d="M46.8277 18.921C46.4693 18.921 46.1109 18.9882 45.7524 19.0555C45.1073 19.19 44.4621 19.2572 43.8886 19.459C43.5302 19.5262 43.3151 19.6607 42.9567 19.7279C42.5266 19.8624 42.1681 19.9969 41.8097 20.1986C41.6663 20.2659 41.5947 20.2659 41.523 20.3331C41.3079 20.4004 41.1645 20.5349 40.9495 20.6021C40.4477 20.8038 39.7308 21.2745 39.229 21.5435C38.5838 22.0142 38.2254 22.2159 37.5802 22.8211C37.0068 23.3591 36.3616 24.166 35.9315 24.8384C35.8598 24.9729 35.8598 24.9729 35.7164 25.1074C35.6447 25.3092 34.7845 26.7213 34.5694 27.1247C34.211 27.7972 33.8526 28.4696 33.4941 29.142C33.2074 29.68 32.4188 30.9576 31.7737 31.7646C31.0568 32.706 29.7665 33.7146 28.7629 34.4543C27.9743 35.0595 27.2575 35.5302 26.4689 36.0681L25.1069 36.9423C24.8918 37.0768 24.8201 37.0768 24.6051 37.2113C24.39 37.3458 23.8165 37.682 23.1714 38.0182C22.3828 38.4889 21.4509 38.8924 20.6623 39.2958C20.2322 39.4976 19.7304 39.7666 19.5154 39.8338C19.3003 39.9683 19.3003 39.9683 19.0853 40.1028L18.0817 40.5735C17.7232 40.7752 17.0781 41.0442 16.7196 41.1787C16.4329 41.3132 16.1461 41.4476 15.8594 41.5821C13.2787 42.5908 12.5618 42.927 10.1245 44.4736C10.4829 45.5495 10.4829 46.2219 10.9847 47.2306C12.5618 46.4909 16.4329 43.8684 16.6479 43.8012C16.7913 43.5994 17.2931 43.3305 17.5082 43.1287C17.7232 42.9942 18.5835 42.3891 19.3003 41.9183C20.0172 41.4476 20.8057 40.9097 21.5943 40.5062C22.4545 39.9683 23.5298 39.3631 23.6732 39.2958C23.9599 39.0941 24.9635 38.4889 25.3219 38.3544C25.537 38.2199 25.7521 38.1527 25.9671 38.0182C26.1105 37.951 26.1822 37.951 26.3255 37.8837L27.9743 37.0768C28.1894 36.9423 29.6231 36.3371 30.6267 36.0009C31.2719 35.7319 32.0604 35.5302 32.7773 35.3285C33.5658 35.1267 34.5694 34.9922 34.9995 34.9922C35.4297 34.8578 38.7272 34.9922 39.5874 34.9922C39.8025 34.9922 40.2326 34.9922 40.6627 34.9922C41.3796 34.9922 41.6663 34.9922 42.3832 34.9922C42.885 34.9922 43.1717 34.925 43.6735 34.8578C44.5338 34.7233 45.6091 34.4543 46.3259 34.1181C46.9711 33.8491 48.1898 33.2439 48.6916 32.9077C48.8349 32.8404 48.8349 32.7732 48.9783 32.706C49.5518 32.3025 50.1253 31.899 50.7705 31.3611C51.0572 31.0921 51.3439 30.8231 51.6307 30.5542C52.1325 30.0835 52.6343 29.4783 52.9927 28.9403C53.9963 27.5282 54.7132 25.7799 54.7132 24.0988C54.6415 22.8211 54.2114 21.678 53.2795 20.6693C52.7777 20.1986 51.9891 19.6607 51.3439 19.3917C50.6988 19.1227 50.1253 18.9882 49.4084 18.8538C48.5482 18.921 47.688 18.8538 46.8277 18.921Z" fill="#242424"/>
<path fill-rule="evenodd" clip-rule="evenodd" d="M64.1756 24.771L63.8172 24.9756L61.5949 26.4077C60.1612 27.2942 58.6558 28.3171 57.2221 29.2037C55.5733 30.2266 53.9962 31.2495 52.2758 32.2725C51.8456 32.5453 51.4155 32.818 51.0571 33.0226C50.4836 33.3636 49.9818 33.6364 49.4083 33.9774C48.6198 34.3865 47.186 35.0685 46.6126 35.4095L45.1788 36.0914C44.8921 36.2278 44.677 36.296 44.3903 36.3642C44.2469 36.4324 43.7451 36.5006 43.6734 36.5688C42.9566 36.637 42.168 36.7734 41.3795 36.7052C40.806 36.7734 40.1608 36.7052 39.5873 36.7052C39.1572 36.7052 38.2253 36.7734 37.8669 36.8416C36.1464 37.0461 35.2145 37.9327 34.7844 38.1373H34.7127C34.4976 38.3419 34.4259 38.3419 34.1392 38.4782L30.4115 40.6605L27.1857 42.7063C25.5369 43.7293 23.458 45.2296 21.8092 46.1161L20.0887 47.139L20.3038 47.5482L20.5189 47.8892C20.8056 47.821 21.0207 47.6846 21.3074 47.48C24.4616 45.4342 29.838 42.8427 33.494 40.8651L33.9241 41.6152C33.6374 41.888 31.3434 43.1155 30.8416 43.4565C29.9097 44.0021 28.9061 44.5476 27.9742 45.1614C27.4007 45.5024 26.7555 45.9115 26.1821 46.2525L23.3146 47.8892C23.0996 48.0256 23.0279 48.0256 22.7411 48.162L21.7375 48.7757C21.4508 48.9121 21.4508 48.9121 21.164 49.1167L21.6658 49.8669C25.0351 48.2302 28.4043 46.1161 31.7019 44.4112L34.641 42.8427L34.9994 43.3883C34.7127 43.7293 33.8525 44.0703 33.494 44.343C30.4115 46.2525 27.1857 48.0938 24.0315 49.935C23.8881 50.0032 22.5261 50.7534 22.3827 50.8898L22.311 50.958C22.4544 51.1626 22.6694 51.5717 22.8128 51.7081C22.9562 51.5717 23.0996 51.5035 23.3146 51.4353C26.1821 49.935 29.0495 48.2984 31.8452 46.7981C32.4904 46.4571 35.4295 44.7522 35.788 44.684L36.2181 45.4342C35.6446 45.8433 35.2145 45.9797 34.7844 46.3207C33.8525 46.8663 32.9205 47.4118 31.9886 47.9574C31.5585 48.2302 31.2718 48.4348 30.6983 48.7075C29.2646 49.5259 27.8308 50.3442 26.3971 51.2308L25.1068 51.9809C24.7483 52.1855 23.6014 52.7992 23.458 52.9356C23.5297 53.1402 23.7447 53.5494 23.9598 53.6858C24.2465 53.4812 26.0387 52.5265 26.4688 52.3219C28.6194 51.2308 30.77 50.1396 32.9205 49.1167C33.279 48.9803 37.3651 46.7299 37.5084 46.7299C37.7235 46.5253 38.0102 46.4571 38.2253 46.3207C38.512 46.1843 38.6554 46.0479 38.9422 45.9115C39.3723 45.7069 39.9458 45.366 40.3042 45.1614C41.6662 44.4794 42.7415 42.8427 43.6734 41.1379C44.1752 40.3877 44.5337 39.7058 45.1072 39.0238C45.3222 38.751 45.6806 38.41 45.9674 38.2055C46.1824 38.0009 46.6842 37.5917 46.8993 37.5917C47.0427 37.4553 47.4011 37.1825 47.6162 37.0461C49.7667 35.8186 51.774 34.4547 53.9962 33.3636C55.7884 32.4771 57.4371 31.7269 59.301 30.9768C61.3799 30.1584 63.6738 29.624 65.2509 28.8056C65.8961 28.4646 66.2545 27.908 66.6846 27.567C66.6846 27.4988 66.6846 27.4988 66.6846 27.4306C66.6129 27.4306 66.6129 27.4306 66.6846 27.3624C66.3979 26.5441 64.6057 25.7939 64.1756 24.771Z" fill="#242424"/>
</g>
<path fill-rule="evenodd" clip-rule="evenodd" d="M65.0363 27.9988C64.9641 28.067 64.9641 28.067 65.0363 27.9988V27.9988Z" fill="#FBFCFE"/>
<defs>
<linearGradient id="paint0_linear_243_715" x1="9.46021" y1="35.8694" x2="66.0308" y2="35.8694" gradientUnits="userSpaceOnUse">
<stop stop-color="#76663E"/>
<stop offset="0.33" stop-color="#93835B"/>
<stop offset="1" stop-color="#E0CD9A"/>
</linearGradient>
<linearGradient id="paint1_linear_243_715" x1="9.46021" y1="35.8694" x2="66.0308" y2="35.8694" gradientUnits="userSpaceOnUse">
<stop stop-color="#76663E"/>
<stop offset="0.33" stop-color="#93835B"/>
<stop offset="1" stop-color="#E0CD9A"/>
</linearGradient>
</defs>
</svg>
