<svg width="16" height="16" viewBox="0 0 16 16" fill="none" xmlns="http://www.w3.org/2000/svg">
<path d="M7.51994 5.47997C7.61361 5.38618 7.74071 5.33342 7.87327 5.3333L8.1266 5.3333C8.25888 5.33484 8.38546 5.38738 8.47994 5.47997L11.8999 8.90664C11.963 8.96923 11.9985 9.05443 11.9985 9.1433C11.9985 9.23218 11.963 9.31738 11.8999 9.37997L11.4266 9.8533C11.3652 9.91601 11.2811 9.95135 11.1933 9.95135C11.1055 9.95135 11.0214 9.91601 10.9599 9.8533L7.99994 6.88664L5.03994 9.8533C4.97735 9.91641 4.89215 9.9519 4.80327 9.9519C4.71439 9.9519 4.62919 9.91641 4.5666 9.8533L4.09994 9.37997C4.03683 9.31738 4.00134 9.23218 4.00134 9.1433C4.00134 9.05443 4.03683 8.96923 4.09994 8.90664L7.51994 5.47997Z" fill="#AD9D72"/>
</svg>
