<svg width="289" height="223" viewBox="0 0 289 223" fill="none" xmlns="http://www.w3.org/2000/svg">
<path d="M150.133 36.2343C154.514 37.8191 157.846 40.1242 160.13 43.1496C162.446 46.139 163.603 49.7408 163.603 53.9548C163.603 57.5565 163.071 60.69 162.008 63.3553C160.975 66.0206 159.379 68.2177 157.22 69.9465C155.093 71.6393 152.574 72.8819 149.664 73.6743C146.785 74.4667 143.108 74.8628 138.634 74.8628H109.722V71.2971C110.88 70.937 111.787 70.5588 112.444 70.1626C113.133 69.7304 113.633 69.1541 113.946 68.4338C114.29 67.6774 114.509 66.7409 114.603 65.6244C114.697 64.4719 114.744 63.0312 114.744 61.3023V14.732C114.744 13.0392 114.697 11.6165 114.603 10.4639C114.541 9.31137 114.337 8.37492 113.993 7.65457C113.68 6.93422 113.18 6.35795 112.491 5.92574C111.834 5.45752 110.911 5.04332 109.722 4.68314V1.11743H140.464C143.969 1.11743 146.832 1.31553 149.054 1.71172C151.995 2.25198 154.545 3.18843 156.704 4.52107C158.644 5.70964 160.162 7.40245 161.257 9.59951C162.352 11.7966 162.899 14.4078 162.899 17.4333C162.899 25.5732 158.644 31.6781 150.133 35.7481V36.2343ZM135.536 33.4249C138.665 33.4249 141.122 32.9027 142.905 31.8582C144.689 30.8137 146.034 29.337 146.941 27.4281C147.88 25.4831 148.35 22.8179 148.35 19.4322C148.35 16.4428 147.849 14.0837 146.848 12.3548C145.846 10.59 144.423 9.32938 142.577 8.57301C140.73 7.81665 138.431 7.43847 135.677 7.43847C133.487 7.43847 131.359 7.52851 129.294 7.7086V33.4249H135.536ZM129.294 68.3797C131.14 68.4878 133.268 68.5418 135.677 68.5418C138.65 68.5418 141.09 68.1276 142.999 67.2992C144.939 66.4348 146.441 64.9581 147.505 62.8691C148.569 60.7441 149.1 57.8447 149.1 54.1709C149.1 51.5777 148.819 49.3626 148.256 47.5257C147.692 45.6528 146.848 44.1581 145.721 43.0416C144.595 41.889 143.249 41.0606 141.685 40.5564C140.12 40.0161 138.165 39.746 135.818 39.746H129.294V68.3797Z" fill="#AD9B70"/>
<path d="M194.342 74.8628H169.481V71.2971C170.649 70.937 171.565 70.5588 172.228 70.1626C172.922 69.7304 173.427 69.1541 173.743 68.4338C174.09 67.6774 174.311 66.7409 174.406 65.6244C174.501 64.4719 174.548 63.0312 174.548 61.3023V14.732C174.548 13.0392 174.501 11.6165 174.406 10.4639C174.343 9.31137 174.138 8.37492 173.79 7.65457C173.475 6.93422 172.97 6.35795 172.275 5.92574C171.612 5.45752 170.681 5.04332 169.481 4.68314V1.11743H197.088C200.813 1.11743 203.97 1.42358 206.559 2.03587C209.179 2.61215 211.468 3.51258 213.425 4.73717C215.066 5.74565 216.455 7.02427 217.592 8.57301C218.728 10.0857 219.596 11.8686 220.196 13.9216C220.828 15.9385 221.143 18.2977 221.143 20.999C221.143 24.5287 220.591 27.5541 219.486 30.0753C218.413 32.5965 216.945 34.7036 215.082 36.3964C213.251 38.0532 210.789 39.6199 207.695 41.0966V41.6369C210.031 42.7894 211.957 44.3382 213.472 46.2831C215.019 48.192 216.408 50.6232 217.639 53.5766L220.622 60.9242C221.948 64.2017 223.258 66.6689 224.553 68.3257C225.879 69.9465 227.441 70.937 229.241 71.2971V74.8628H211.01C209.179 71.9815 207.111 67.6954 204.807 62.0047L201.113 52.7662C200.008 50.0289 199.061 48.084 198.272 46.9314C197.483 45.7789 196.662 44.9865 195.81 44.5543C194.989 44.1221 193.71 43.906 191.974 43.906H189.227V61.3023C189.227 64.0036 189.338 65.8945 189.559 66.9751C189.78 68.0556 190.206 68.92 190.837 69.5683C191.469 70.2166 192.637 70.7929 194.342 71.2971V74.8628ZM189.227 7.54652V37.5849H193.915C196.441 37.5849 198.524 37.2068 200.166 36.4504C201.808 35.658 203.102 34.5775 204.049 33.2088C205.028 31.8042 205.691 30.1654 206.038 28.2925C206.417 26.4196 206.606 24.3666 206.606 22.1335C206.606 17.2352 205.596 13.5614 203.575 11.1122C201.555 8.66305 198.556 7.43847 194.578 7.43847C191.863 7.43847 190.08 7.47448 189.227 7.54652Z" fill="#AD9B70"/>
<path d="M282.313 2.84018V18.0592H275.85C275.127 15.0583 274.293 12.754 273.35 11.1464C272.438 9.50298 271.243 8.28831 269.765 7.50235C268.318 6.68067 266.447 6.26982 264.151 6.26982C261.038 6.26982 258.286 7.35945 255.896 9.5387C253.506 11.6822 251.619 15.1297 250.236 19.8812C248.852 24.597 248.16 30.581 248.16 37.8333C248.16 44.0853 248.616 49.5155 249.528 54.1241C250.471 58.697 251.887 62.2517 253.773 64.7882C255.692 67.3247 258.05 68.5929 260.849 68.5929C263.617 68.5929 265.661 67.6641 266.982 65.8064C268.302 63.9129 268.963 60.912 268.963 56.8035V54.7672C268.963 52.052 268.884 50.1229 268.727 48.9796C268.57 47.8007 268.318 46.9254 267.972 46.3538C267.658 45.7822 267.233 45.3178 266.699 44.9605C266.164 44.6033 265.221 44.1924 263.868 43.728V40.1912H288.02V43.728C286.448 44.2639 285.379 44.8712 284.813 45.55C284.247 46.2288 283.853 47.1398 283.633 48.283C283.445 49.3905 283.35 50.9624 283.35 52.9988V73.2015L276.558 74.8092L273.35 70.9508C269.608 73.5588 265.315 74.8628 260.472 74.8628C251.289 74.8628 244.433 71.8261 239.905 65.7528C235.408 59.6437 233.159 50.4087 233.159 38.0476C233.159 31.5456 233.961 25.8295 235.565 20.8994C237.169 15.9693 239.386 11.968 242.216 8.89565C245.078 5.78753 248.286 3.53682 251.839 2.14353C255.425 0.714508 259.261 0 263.349 0C270.237 0 276.558 0.946724 282.313 2.84018Z" fill="#AD9B70"/>
<path d="M252.969 92.3128C252.969 91.2465 252.843 90.2158 252.591 89.2206C252.339 88.2254 251.867 87.3546 251.174 86.6083C250.481 85.8263 249.521 85.2221 248.293 84.7956C247.065 84.3336 245.475 84.1025 243.523 84.1025C241.382 84.1025 239.115 84.458 236.722 85.1688C234.329 85.8441 231.952 86.7327 229.59 87.8345C227.229 88.9007 224.962 90.0736 222.789 91.3531C220.617 92.6326 218.696 93.8766 217.027 95.085C215.39 96.2935 214.068 97.3775 213.06 98.3372C212.084 99.2968 211.596 99.9721 211.596 100.363C211.596 100.932 211.753 101.412 212.068 101.803C212.383 102.158 212.714 102.336 213.06 102.336C213.375 102.336 213.8 102.247 214.335 102.069C214.87 101.856 215.453 101.571 216.083 101.216C216.744 100.861 217.437 100.47 218.161 100.043C218.916 99.5811 219.672 99.1013 220.428 98.6037C221.341 97.9995 222.238 97.3775 223.12 96.7378C224.001 96.098 224.789 95.4938 225.481 94.9251C226.205 94.3564 226.804 93.8588 227.276 93.4323C227.78 93.0058 228.095 92.7037 228.221 92.526C228.189 92.3128 228.095 92.1884 227.937 92.1528C227.78 92.1173 227.622 92.1173 227.465 92.1528C227.276 92.2595 226.93 92.4905 226.426 92.8459C225.954 93.2013 225.355 93.6278 224.631 94.1254C223.938 94.5875 223.183 95.1028 222.364 95.6715C221.546 96.2046 220.711 96.7378 219.861 97.2709C218.539 98.1239 217.311 98.8525 216.177 99.4567C215.044 100.061 214.256 100.363 213.816 100.363C213.595 100.363 213.485 100.274 213.485 100.096C213.485 99.9188 213.8 99.5811 214.43 99.0835C215.059 98.5859 215.91 97.9995 216.98 97.3242C218.051 96.6134 219.31 95.8492 220.758 95.0317C222.207 94.2143 223.765 93.3968 225.434 92.5793C227.103 91.7263 228.835 90.9089 230.629 90.1269C232.424 89.345 234.187 88.6519 235.919 88.0477C235.289 88.8296 234.408 89.9314 233.274 91.3531C232.172 92.7748 230.928 94.392 229.543 96.2046C228.189 97.9817 226.741 99.901 225.198 101.962C223.687 104.024 222.207 106.085 220.758 108.147C219.625 109.746 218.491 111.417 217.358 113.158C216.256 114.9 215.264 116.535 214.382 118.063C213.532 119.591 212.824 120.942 212.257 122.115C211.722 123.252 211.454 124.052 211.454 124.514C211.454 124.798 211.501 125.136 211.596 125.527C211.722 125.918 211.879 126.291 212.068 126.646C212.257 127.037 212.462 127.357 212.682 127.606C212.934 127.855 213.186 127.979 213.438 127.979C213.658 127.979 213.989 127.588 214.43 126.806C214.902 126.06 215.374 125.207 215.847 124.247C216.35 123.288 216.791 122.381 217.169 121.528C217.578 120.675 217.83 120.16 217.925 119.982C217.925 119.698 217.814 119.591 217.594 119.662C217.5 119.733 217.326 119.911 217.075 120.196C216.854 120.444 216.602 120.729 216.319 121.049C216.067 121.368 215.831 121.671 215.61 121.955C215.39 122.239 215.233 122.435 215.138 122.541L214.996 122.435C214.996 122.328 215.248 121.848 215.752 120.995C216.287 120.107 217.012 118.969 217.925 117.583C218.869 116.162 219.955 114.544 221.183 112.732C222.443 110.919 223.813 109 225.292 106.974C227.024 104.593 228.709 102.389 230.346 100.363C232.015 98.3016 233.479 96.5067 234.738 94.9784C235.998 93.4501 237.005 92.2239 237.761 91.2998C238.548 90.3757 238.942 89.8426 238.942 89.7004C238.942 89.4516 238.863 89.0607 238.706 88.5275C238.58 87.9589 238.438 87.5324 238.28 87.248C239.697 86.8571 241.035 86.5372 242.295 86.2884C243.554 86.0396 244.719 85.9152 245.79 85.9152C246.546 85.9152 247.285 86.004 248.01 86.1818C248.734 86.3595 249.379 86.6083 249.946 86.9281C250.513 87.248 250.954 87.6567 251.269 88.1543C251.615 88.6164 251.788 89.1317 251.788 89.7004C251.788 90.9444 251.363 92.295 250.513 93.7522C249.694 95.1739 248.624 96.6134 247.301 98.0706C246.01 99.4923 244.546 100.861 242.909 102.176C241.272 103.491 239.65 104.664 238.044 105.694C236.439 106.725 234.927 107.543 233.51 108.147C232.093 108.751 230.96 109.053 230.11 109.053C229.386 109.053 228.63 109.16 227.843 109.373C227.056 109.551 226.331 109.782 225.67 110.066C225.009 110.315 224.458 110.581 224.017 110.866C223.608 111.15 223.403 111.381 223.403 111.559C223.403 111.95 223.529 112.199 223.781 112.305C224.033 112.412 224.364 112.465 224.773 112.465C224.993 112.465 225.277 112.376 225.623 112.199C226.001 112.021 226.426 111.825 226.898 111.612C227.37 111.399 227.874 111.203 228.41 111.026C228.945 110.848 229.48 110.759 230.015 110.759C231.999 110.759 233.558 111.115 234.691 111.825C235.825 112.536 236.391 113.336 236.391 114.224C236.391 115.22 235.919 116.25 234.974 117.317C234.061 118.383 232.912 119.36 231.527 120.249C230.173 121.102 228.709 121.813 227.134 122.381C225.56 122.95 224.127 123.234 222.836 123.234C221.734 123.234 220.995 123.092 220.617 122.808C220.239 122.488 220.05 122.115 220.05 121.688C220.05 121.191 220.176 120.711 220.428 120.249C220.68 119.751 220.884 119.414 221.042 119.236C221.042 119.129 221.01 119.04 220.947 118.969C220.884 118.863 220.806 118.827 220.711 118.863C220.617 118.969 220.459 119.129 220.239 119.343C220.05 119.52 219.845 119.751 219.625 120.036C219.436 120.284 219.263 120.587 219.105 120.942C218.948 121.297 218.869 121.653 218.869 122.008C218.869 122.399 219.011 122.808 219.294 123.234C219.578 123.661 219.955 124.07 220.428 124.461C220.9 124.852 221.435 125.171 222.034 125.42C222.663 125.669 223.309 125.793 223.97 125.793C225.261 125.793 226.678 125.562 228.221 125.1C229.795 124.638 231.259 123.981 232.613 123.128C233.998 122.275 235.148 121.262 236.061 120.089C237.005 118.88 237.478 117.548 237.478 116.09C237.478 114.527 237.163 113.247 236.533 112.252C235.903 111.221 235.116 110.475 234.172 110.013C235.399 109.657 236.706 109.177 238.092 108.573C239.508 107.969 240.91 107.276 242.295 106.494C243.68 105.677 245.018 104.752 246.309 103.722C247.6 102.691 248.734 101.589 249.71 100.416C250.717 99.2079 251.505 97.9284 252.071 96.5778C252.67 95.2272 252.969 93.8055 252.969 92.3128Z" fill="white"/>
<path d="M256.624 116.046C256.755 115.809 256.781 115.572 256.703 115.335C256.65 115.069 256.506 114.935 256.27 114.935C255.824 115.617 255.155 116.475 254.263 117.512C253.397 118.549 252.452 119.571 251.429 120.578C250.878 121.111 250.314 121.614 249.736 122.088C249.185 122.562 248.634 122.992 248.083 123.377C247.532 123.732 246.994 124.013 246.47 124.221C245.971 124.428 245.512 124.532 245.092 124.532C244.672 124.532 244.331 124.369 244.069 124.043C243.833 123.688 243.715 123.214 243.715 122.621C243.715 122.088 243.806 121.511 243.99 120.889C244.174 120.267 244.41 119.645 244.699 119.023C245.302 118.845 246.037 118.549 246.903 118.134C247.795 117.719 248.634 117.246 249.422 116.712C250.235 116.179 250.93 115.631 251.507 115.069C252.085 114.476 252.373 113.913 252.373 113.38C252.373 112.906 252.203 112.566 251.862 112.359C251.521 112.151 251.232 111.959 250.996 111.781C250.76 111.603 250.51 111.381 250.248 111.115C250.012 110.818 249.71 110.67 249.343 110.67C248.818 110.67 248.123 111.011 247.257 111.692C246.417 112.344 245.578 113.217 244.738 114.313C243.898 115.38 243.177 116.594 242.573 117.956C241.97 119.319 241.668 120.681 241.668 122.044C241.668 123.258 241.97 124.191 242.573 124.843C243.177 125.465 243.951 125.776 244.895 125.776C245.446 125.776 246.024 125.657 246.627 125.42C247.257 125.154 247.887 124.813 248.516 124.398C249.146 123.954 249.776 123.451 250.405 122.888C251.035 122.325 251.652 121.748 252.255 121.155C253.436 119.97 254.381 118.934 255.089 118.045C255.797 117.127 256.309 116.461 256.624 116.046ZM250.917 113.647C250.917 113.795 250.733 114.032 250.366 114.358C250.025 114.684 249.592 115.024 249.067 115.38C248.569 115.735 248.018 116.076 247.414 116.401C246.811 116.698 246.26 116.905 245.761 117.023C246.102 116.461 246.457 115.928 246.824 115.424C247.217 114.921 247.598 114.491 247.965 114.136C248.359 113.751 248.726 113.454 249.067 113.247C249.408 113.01 249.697 112.892 249.933 112.892C250.353 112.892 250.615 112.966 250.72 113.114C250.852 113.262 250.917 113.44 250.917 113.647Z" fill="white"/>
<path d="M263.168 113.336C263.168 113.129 263.05 112.877 262.814 112.581C262.604 112.255 262.342 111.944 262.027 111.648C261.712 111.351 261.384 111.1 261.043 110.892C260.728 110.685 260.479 110.581 260.295 110.581C259.534 110.581 258.813 110.744 258.13 111.07C257.448 111.366 256.845 111.796 256.32 112.359C255.821 112.892 255.415 113.543 255.1 114.313C254.811 115.054 254.667 115.853 254.667 116.712C254.667 117.423 254.772 118.03 254.982 118.534C255.218 119.037 255.467 119.511 255.73 119.956C256.018 120.37 256.267 120.785 256.477 121.2C256.713 121.585 256.832 122.014 256.832 122.488C256.832 123.228 256.556 123.895 256.005 124.487C255.48 125.08 254.89 125.376 254.234 125.376C253.84 125.376 253.512 125.287 253.25 125.109C253.014 124.932 252.83 124.843 252.699 124.843C252.542 124.843 252.41 124.902 252.305 125.02C252.41 125.494 252.673 125.835 253.093 126.042C253.539 126.279 253.945 126.398 254.313 126.398C254.811 126.398 255.323 126.279 255.848 126.042C256.372 125.835 256.845 125.539 257.264 125.154C257.711 124.739 258.065 124.28 258.327 123.776C258.616 123.243 258.76 122.666 258.76 122.044C258.76 121.54 258.668 121.066 258.485 120.622C258.301 120.178 258.091 119.733 257.855 119.289C257.645 118.845 257.448 118.401 257.264 117.956C257.081 117.512 256.989 117.038 256.989 116.535C256.989 116.002 257.081 115.498 257.264 115.024C257.474 114.521 257.75 114.091 258.091 113.736C258.432 113.351 258.826 113.04 259.272 112.803C259.718 112.566 260.19 112.447 260.689 112.447C261.161 112.447 261.502 112.521 261.712 112.67C261.948 112.818 262.119 112.98 262.224 113.158C262.328 113.336 262.407 113.499 262.46 113.647C262.512 113.795 262.617 113.869 262.775 113.869C262.906 113.869 262.998 113.81 263.05 113.691C263.129 113.573 263.168 113.454 263.168 113.336Z" fill="white"/>
<path d="M278.071 98.4082C278.071 98.2601 278.006 98.1269 277.874 98.0084C277.743 97.8603 277.586 97.7418 277.402 97.653C277.245 97.5641 277.061 97.4901 276.851 97.4308C276.667 97.3716 276.51 97.342 276.379 97.342C276.274 97.342 276.038 97.5789 275.67 98.0528C275.303 98.4971 274.844 99.0895 274.293 99.8299C273.768 100.541 273.178 101.37 272.522 102.318C271.892 103.236 271.249 104.169 270.593 105.117C269.963 106.065 269.36 106.983 268.783 107.871C268.232 108.73 267.773 109.471 267.405 110.093C267.3 110.241 267.195 110.404 267.09 110.581C267.012 110.729 266.907 110.892 266.776 111.07C266.146 111.07 265.647 111.085 265.28 111.115C264.913 111.115 264.637 111.129 264.453 111.159C264.296 111.159 264.178 111.159 264.099 111.159C264.047 111.159 263.994 111.159 263.942 111.159C263.784 111.159 263.64 111.203 263.509 111.292C263.378 111.381 263.312 111.5 263.312 111.648C263.312 111.796 263.404 111.855 263.588 111.825C263.771 111.796 263.955 111.781 264.139 111.781C264.191 111.781 264.23 111.781 264.257 111.781C264.309 111.781 264.401 111.781 264.532 111.781C264.663 111.781 264.86 111.796 265.122 111.825C265.411 111.825 265.818 111.825 266.343 111.825C265.765 112.803 265.162 113.869 264.532 115.024C263.929 116.179 263.365 117.379 262.84 118.623C262.341 119.837 261.921 121.066 261.58 122.31C261.239 123.525 261.069 124.68 261.069 125.776C261.069 126.723 261.279 127.464 261.698 127.997C262.118 128.53 262.656 128.797 263.312 128.797C263.732 128.797 264.152 128.708 264.571 128.53C264.991 128.382 265.372 128.19 265.713 127.953C266.054 127.745 266.356 127.523 266.618 127.286C266.88 127.079 267.077 126.916 267.208 126.797C267.261 126.679 267.261 126.561 267.208 126.442C267.156 126.324 267.077 126.235 266.972 126.175C266.841 126.294 266.644 126.457 266.382 126.664C266.146 126.872 265.857 127.064 265.516 127.242C265.201 127.449 264.86 127.627 264.493 127.775C264.125 127.923 263.758 127.997 263.391 127.997C263.023 127.997 262.709 127.819 262.446 127.464C262.184 127.108 262.053 126.62 262.053 125.998C262.053 125.08 262.289 124.013 262.761 122.799C263.233 121.585 263.811 120.341 264.493 119.067C265.175 117.764 265.91 116.49 266.697 115.246C267.51 113.973 268.258 112.832 268.94 111.825H270.042C270.095 111.825 270.121 111.855 270.121 111.914C270.121 111.973 270.108 112.033 270.082 112.092C270.082 112.151 270.082 112.21 270.082 112.27C270.082 112.388 270.095 112.462 270.121 112.492C270.173 112.521 270.291 112.536 270.475 112.536C270.58 112.536 270.79 112.521 271.105 112.492C271.446 112.433 271.774 112.359 272.089 112.27C272.43 112.181 272.732 112.077 272.994 111.959C273.256 111.811 273.388 111.648 273.388 111.47C273.388 111.351 273.309 111.248 273.151 111.159C272.994 111.04 272.81 110.981 272.6 110.981C272.495 110.981 272.141 110.981 271.538 110.981C270.961 110.981 270.252 110.996 269.412 111.026C270.305 109.634 271.184 108.301 272.049 107.027C272.942 105.724 273.742 104.569 274.45 103.562C275.185 102.555 275.788 101.74 276.261 101.118C276.759 100.467 277.061 100.067 277.166 99.9188C277.376 99.6818 277.573 99.4449 277.756 99.2079C277.966 98.971 278.071 98.7044 278.071 98.4082Z" fill="white"/>
<path d="M178.278 118.515C178.278 117.422 178.091 116.42 177.716 115.509C177.372 114.598 176.824 113.797 176.074 113.105C175.323 112.413 174.354 111.884 173.166 111.52C171.977 111.119 170.539 110.919 168.85 110.919C166.724 110.919 164.472 111.283 162.095 112.012C159.719 112.704 157.358 113.615 155.012 114.744C152.667 115.837 150.416 117.039 148.258 118.351C146.1 119.662 144.192 120.937 142.535 122.176C140.909 123.415 139.596 124.526 138.595 125.509C137.625 126.493 137.141 127.185 137.141 127.586C137.141 128.169 137.297 128.661 137.61 129.061C137.923 129.426 138.251 129.608 138.595 129.608C138.908 129.608 139.33 129.517 139.861 129.335C140.393 129.116 140.971 128.825 141.597 128.46C142.254 128.096 142.942 127.695 143.661 127.258C144.411 126.784 145.162 126.293 145.912 125.783C146.819 125.163 147.711 124.526 148.586 123.87C149.462 123.214 150.244 122.595 150.931 122.012C151.651 121.429 152.245 120.919 152.714 120.482C153.214 120.045 153.527 119.735 153.652 119.553C153.621 119.334 153.527 119.207 153.371 119.17C153.214 119.134 153.058 119.134 152.902 119.17C152.714 119.28 152.37 119.517 151.87 119.881C151.401 120.245 150.806 120.682 150.087 121.192C149.399 121.666 148.649 122.194 147.836 122.777C147.023 123.324 146.194 123.87 145.35 124.417C144.036 125.291 142.817 126.038 141.691 126.657C140.565 127.276 139.783 127.586 139.345 127.586C139.126 127.586 139.017 127.495 139.017 127.313C139.017 127.131 139.33 126.784 139.955 126.274C140.581 125.764 141.425 125.163 142.488 124.471C143.551 123.743 144.802 122.959 146.241 122.121C147.679 121.283 149.227 120.446 150.885 119.608C152.542 118.733 154.246 117.895 155.997 117.094C157.78 116.292 159.547 115.582 161.298 114.963C160.673 115.764 159.797 116.894 158.671 118.351C157.577 119.808 156.341 121.466 154.966 123.324C153.621 125.145 152.182 127.112 150.65 129.225C149.149 131.338 147.679 133.451 146.241 135.564C145.115 137.204 143.989 138.916 142.863 140.701C141.769 142.486 140.784 144.162 139.908 145.728C139.064 147.295 138.36 148.679 137.797 149.882C137.266 151.047 137 151.867 137 152.341C137 152.632 137.047 152.978 137.141 153.379C137.266 153.78 137.422 154.162 137.61 154.526C137.797 154.927 138.001 155.255 138.22 155.51C138.47 155.765 138.72 155.893 138.97 155.893C139.189 155.893 139.517 155.492 139.955 154.69C140.424 153.925 140.893 153.051 141.362 152.067C141.863 151.084 142.301 150.155 142.676 149.28C143.082 148.406 143.332 147.878 143.426 147.696C143.426 147.404 143.317 147.295 143.098 147.368C143.004 147.441 142.832 147.623 142.582 147.914C142.363 148.169 142.113 148.461 141.831 148.789C141.581 149.116 141.347 149.426 141.128 149.718C140.909 150.009 140.753 150.209 140.659 150.319L140.518 150.209C140.518 150.137 140.69 149.809 141.034 149.226C141.378 148.606 141.863 147.805 142.488 146.821C143.114 145.801 143.848 144.617 144.693 143.269C145.568 141.921 146.522 140.482 147.554 138.952C147.836 140.482 148.211 142.14 148.68 143.925C149.18 145.674 149.79 147.313 150.509 148.843C151.26 150.337 152.135 151.594 153.136 152.614C154.137 153.597 155.294 154.089 156.607 154.089C157.201 154.089 157.764 153.925 158.296 153.597C158.859 153.306 159.344 152.96 159.75 152.559C160.188 152.122 160.548 151.685 160.829 151.248C161.142 150.811 161.376 150.446 161.533 150.155C161.376 149.718 161.126 149.59 160.782 149.772C160.469 150.246 159.985 150.774 159.328 151.357C158.671 151.94 157.78 152.231 156.654 152.231C156.029 152.231 155.466 151.976 154.966 151.466C154.496 150.92 154.074 150.246 153.699 149.444C153.324 148.606 152.995 147.677 152.714 146.657C152.464 145.601 152.245 144.544 152.057 143.488C151.87 142.431 151.713 141.43 151.588 140.482C151.494 139.535 151.416 138.752 151.354 138.133C151.635 138.206 151.917 138.26 152.198 138.297C152.479 138.333 152.761 138.351 153.042 138.351C155.075 138.351 157.108 138.06 159.14 137.477C161.173 136.858 163.127 136.038 165.004 135.018C166.88 133.998 168.616 132.814 170.21 131.466C171.837 130.118 173.244 128.715 174.432 127.258C175.62 125.801 176.559 124.325 177.247 122.832C177.935 121.302 178.278 119.863 178.278 118.515ZM177.012 116.93C177.012 118.023 176.621 119.28 175.839 120.701C175.089 122.085 174.057 123.506 172.743 124.963C171.461 126.42 169.96 127.859 168.24 129.28C166.552 130.664 164.769 131.903 162.893 132.996C161.017 134.089 159.093 134.981 157.123 135.674C155.184 136.329 153.339 136.657 151.588 136.657C151.088 136.657 150.65 136.621 150.275 136.548C149.931 136.475 149.634 136.384 149.384 136.275L150.744 134.362C152.495 131.921 154.184 129.663 155.81 127.586C157.436 125.473 158.874 123.633 160.125 122.067C161.407 120.5 162.424 119.243 163.174 118.296C163.925 117.349 164.3 116.802 164.3 116.657C164.3 116.402 164.222 116.001 164.066 115.455C163.94 114.872 163.8 114.435 163.643 114.143C165.051 113.742 166.38 113.414 167.631 113.159C168.881 112.904 170.038 112.777 171.102 112.777C173.228 112.777 174.745 113.159 175.652 113.924C176.559 114.69 177.012 115.691 177.012 116.93Z" fill="white"/>
<path d="M179.749 143.661C179.88 143.418 179.906 143.175 179.827 142.932C179.775 142.659 179.632 142.523 179.397 142.523C178.954 143.221 178.29 144.101 177.404 145.164C176.544 146.226 175.606 147.274 174.589 148.306C174.042 148.852 173.482 149.368 172.909 149.854C172.361 150.34 171.814 150.78 171.267 151.175C170.72 151.539 170.185 151.828 169.664 152.04C169.169 152.253 168.713 152.359 168.296 152.359C167.879 152.359 167.54 152.192 167.28 151.858C167.045 151.494 166.928 151.008 166.928 150.401C166.928 149.854 167.019 149.262 167.202 148.625C167.384 147.987 167.618 147.35 167.905 146.712C168.504 146.53 169.234 146.226 170.094 145.801C170.98 145.376 171.814 144.891 172.596 144.344C173.404 143.798 174.094 143.236 174.668 142.659C175.241 142.052 175.528 141.475 175.528 140.929C175.528 140.443 175.358 140.094 175.019 139.881C174.681 139.669 174.394 139.471 174.159 139.289C173.925 139.107 173.677 138.879 173.417 138.606C173.182 138.303 172.883 138.151 172.518 138.151C171.996 138.151 171.306 138.5 170.446 139.198C169.612 139.866 168.778 140.762 167.944 141.885C167.11 142.978 166.394 144.223 165.794 145.619C165.195 147.016 164.895 148.412 164.895 149.809C164.895 151.053 165.195 152.01 165.794 152.678C166.394 153.315 167.162 153.634 168.101 153.634C168.648 153.634 169.221 153.512 169.821 153.27C170.446 152.996 171.071 152.647 171.697 152.222C172.322 151.767 172.948 151.251 173.573 150.674C174.199 150.097 174.811 149.505 175.41 148.898C176.583 147.684 177.521 146.621 178.225 145.71C178.928 144.769 179.437 144.086 179.749 143.661ZM174.081 141.202C174.081 141.354 173.899 141.597 173.534 141.931C173.195 142.264 172.765 142.614 172.244 142.978C171.749 143.342 171.202 143.691 170.602 144.025C170.003 144.329 169.456 144.541 168.961 144.663C169.299 144.086 169.651 143.54 170.016 143.023C170.407 142.507 170.785 142.067 171.15 141.703C171.54 141.308 171.905 141.005 172.244 140.792C172.583 140.549 172.869 140.428 173.104 140.428C173.521 140.428 173.782 140.504 173.886 140.655C174.016 140.807 174.081 140.989 174.081 141.202Z" fill="white"/>
<path d="M186.249 140.883C186.249 140.671 186.132 140.413 185.897 140.109C185.688 139.775 185.428 139.456 185.115 139.153C184.802 138.849 184.477 138.591 184.138 138.379C183.825 138.166 183.578 138.06 183.395 138.06C182.64 138.06 181.923 138.227 181.245 138.561C180.568 138.864 179.968 139.304 179.447 139.881C178.952 140.428 178.548 141.096 178.235 141.885C177.949 142.644 177.805 143.464 177.805 144.344C177.805 145.073 177.91 145.695 178.118 146.211C178.353 146.727 178.6 147.213 178.861 147.668C179.148 148.093 179.395 148.518 179.604 148.943C179.838 149.338 179.955 149.778 179.955 150.264C179.955 151.023 179.682 151.706 179.134 152.313C178.613 152.92 178.027 153.224 177.375 153.224C176.985 153.224 176.659 153.133 176.398 152.951C176.164 152.769 175.981 152.678 175.851 152.678C175.695 152.678 175.564 152.738 175.46 152.86C175.564 153.345 175.825 153.695 176.242 153.907C176.685 154.15 177.089 154.271 177.454 154.271C177.949 154.271 178.457 154.15 178.978 153.907C179.499 153.695 179.968 153.391 180.385 152.996C180.828 152.571 181.18 152.101 181.441 151.585C181.727 151.038 181.871 150.446 181.871 149.809C181.871 149.293 181.78 148.807 181.597 148.351C181.415 147.896 181.206 147.441 180.972 146.985C180.763 146.53 180.568 146.075 180.385 145.619C180.203 145.164 180.112 144.678 180.112 144.162C180.112 143.615 180.203 143.099 180.385 142.614C180.594 142.098 180.867 141.657 181.206 141.293C181.545 140.898 181.936 140.58 182.379 140.337C182.822 140.094 183.291 139.972 183.786 139.972C184.255 139.972 184.594 140.048 184.802 140.2C185.037 140.352 185.206 140.519 185.311 140.701C185.415 140.883 185.493 141.05 185.545 141.202C185.597 141.354 185.702 141.43 185.858 141.43C185.988 141.43 186.079 141.369 186.132 141.247C186.21 141.126 186.249 141.005 186.249 140.883Z" fill="white"/>
<path d="M201.05 125.582C201.05 125.43 200.985 125.294 200.855 125.172C200.725 125.021 200.568 124.899 200.386 124.808C200.229 124.717 200.047 124.641 199.838 124.58C199.656 124.52 199.5 124.489 199.369 124.489C199.265 124.489 199.031 124.732 198.666 125.218C198.301 125.673 197.845 126.281 197.298 127.04C196.776 127.768 196.19 128.618 195.539 129.59C194.913 130.531 194.275 131.487 193.623 132.459C192.998 133.43 192.398 134.371 191.825 135.282C191.278 136.162 190.822 136.921 190.457 137.559C190.353 137.711 190.249 137.878 190.144 138.06C190.066 138.212 189.962 138.379 189.832 138.561C189.206 138.561 188.711 138.576 188.346 138.606C187.981 138.606 187.708 138.621 187.525 138.652C187.369 138.652 187.252 138.652 187.173 138.652C187.121 138.652 187.069 138.652 187.017 138.652C186.861 138.652 186.717 138.697 186.587 138.788C186.457 138.879 186.392 139.001 186.392 139.153C186.392 139.304 186.483 139.365 186.665 139.335C186.848 139.304 187.03 139.289 187.213 139.289C187.265 139.289 187.304 139.289 187.33 139.289C187.382 139.289 187.473 139.289 187.603 139.289C187.734 139.289 187.929 139.304 188.19 139.335C188.476 139.335 188.88 139.335 189.402 139.335C188.828 140.337 188.229 141.43 187.603 142.614C187.004 143.798 186.444 145.027 185.923 146.302C185.427 147.547 185.011 148.807 184.672 150.082C184.333 151.327 184.164 152.511 184.164 153.634C184.164 154.605 184.372 155.364 184.789 155.911C185.206 156.457 185.74 156.73 186.392 156.73C186.809 156.73 187.226 156.639 187.643 156.457C188.06 156.305 188.437 156.108 188.776 155.865C189.115 155.653 189.415 155.425 189.675 155.182C189.936 154.97 190.131 154.803 190.262 154.681C190.314 154.56 190.314 154.438 190.262 154.317C190.209 154.196 190.131 154.104 190.027 154.044C189.897 154.165 189.701 154.332 189.441 154.545C189.206 154.757 188.919 154.955 188.581 155.137C188.268 155.349 187.929 155.531 187.564 155.683C187.2 155.835 186.835 155.911 186.47 155.911C186.105 155.911 185.792 155.729 185.532 155.364C185.271 155 185.141 154.499 185.141 153.862C185.141 152.92 185.375 151.828 185.844 150.583C186.314 149.338 186.887 148.063 187.564 146.758C188.242 145.422 188.972 144.116 189.753 142.841C190.561 141.536 191.304 140.367 191.981 139.335H193.076C193.128 139.335 193.154 139.365 193.154 139.426C193.154 139.487 193.141 139.547 193.115 139.608C193.115 139.669 193.115 139.73 193.115 139.79C193.115 139.912 193.128 139.988 193.154 140.018C193.206 140.048 193.324 140.063 193.506 140.063C193.61 140.063 193.819 140.048 194.131 140.018C194.47 139.957 194.796 139.881 195.109 139.79C195.447 139.699 195.747 139.593 196.008 139.471C196.268 139.32 196.399 139.153 196.399 138.971C196.399 138.849 196.32 138.743 196.164 138.652C196.008 138.53 195.825 138.47 195.617 138.47C195.513 138.47 195.161 138.47 194.561 138.47C193.988 138.47 193.284 138.485 192.451 138.515C193.337 137.088 194.21 135.722 195.07 134.417C195.956 133.081 196.75 131.897 197.454 130.865C198.184 129.833 198.783 128.998 199.252 128.36C199.747 127.692 200.047 127.282 200.151 127.131C200.36 126.888 200.555 126.645 200.738 126.402C200.946 126.159 201.05 125.886 201.05 125.582Z" fill="white"/>
<path d="M210.281 143.752C210.411 143.418 210.425 143.175 210.32 143.023C210.242 142.872 210.164 142.796 210.086 142.796C209.981 142.948 209.812 143.175 209.578 143.479C209.343 143.782 209.056 144.132 208.718 144.526C208.379 144.921 208.014 145.361 207.623 145.847C207.232 146.302 206.841 146.758 206.45 147.213C205.721 148.002 205.03 148.701 204.379 149.308C203.727 149.915 203.258 150.219 202.971 150.219C202.763 150.219 202.62 150.127 202.541 149.945C202.489 149.763 202.463 149.551 202.463 149.308C202.463 149.004 202.515 148.655 202.62 148.26C202.724 147.866 202.841 147.471 202.971 147.076C203.102 146.651 203.219 146.257 203.323 145.892C203.427 145.498 203.48 145.164 203.48 144.891C203.48 144.466 203.375 144.162 203.167 143.98C202.984 143.798 202.737 143.707 202.424 143.707C202.294 143.707 202.098 143.782 201.838 143.934C201.994 143.631 202.164 143.282 202.346 142.887C202.528 142.492 202.685 142.113 202.815 141.748C202.971 141.354 203.089 141.005 203.167 140.701C203.271 140.367 203.323 140.109 203.323 139.927C203.323 139.229 203.141 138.712 202.776 138.379C202.437 138.045 202.007 137.878 201.486 137.878C200.861 137.878 200.183 138.136 199.453 138.652C198.724 139.138 197.994 139.79 197.264 140.61C196.561 141.399 195.87 142.31 195.193 143.342C194.541 144.344 193.955 145.376 193.434 146.439C192.938 147.501 192.535 148.534 192.222 149.535C191.909 150.537 191.753 151.418 191.753 152.177C191.753 152.632 191.831 153.042 191.987 153.406C192.17 153.771 192.391 153.953 192.652 153.953C192.834 153.953 193.121 153.801 193.512 153.497C193.903 153.163 194.333 152.784 194.802 152.359C195.271 151.903 195.74 151.433 196.209 150.947C196.704 150.431 197.121 149.991 197.46 149.627C197.799 149.262 198.163 148.883 198.554 148.488C198.971 148.063 199.349 147.684 199.688 147.35C200.053 146.985 200.352 146.682 200.587 146.439C200.848 146.196 200.991 146.075 201.017 146.075C201.069 146.075 201.108 146.105 201.134 146.166C201.186 146.226 201.199 146.302 201.173 146.393C201.121 146.515 201.043 146.864 200.939 147.441C200.861 148.017 200.822 148.503 200.822 148.898C200.822 149.687 200.926 150.355 201.134 150.902C201.343 151.448 201.681 151.721 202.151 151.721C202.463 151.721 202.828 151.6 203.245 151.357C203.662 151.084 204.066 150.765 204.457 150.401C204.874 150.036 205.265 149.657 205.63 149.262C206.02 148.868 206.359 148.534 206.646 148.26C206.906 147.987 207.232 147.623 207.623 147.167C208.014 146.682 208.392 146.211 208.757 145.756C209.148 145.27 209.486 144.845 209.773 144.481C210.06 144.086 210.229 143.843 210.281 143.752ZM202.502 139.881C202.502 140.003 202.411 140.261 202.229 140.655C202.046 141.05 201.838 141.475 201.603 141.931C201.395 142.356 201.186 142.765 200.978 143.16C200.769 143.524 200.639 143.737 200.587 143.798C200.483 143.949 200.379 144.086 200.274 144.207C200.17 144.299 200.118 144.374 200.118 144.435C200.118 144.496 200.183 144.572 200.313 144.663C200.444 144.754 200.6 144.83 200.782 144.891C200.392 145.285 199.975 145.725 199.532 146.211C199.089 146.697 198.633 147.183 198.163 147.668C197.72 148.124 197.225 148.64 196.678 149.217C196.131 149.763 195.597 150.279 195.075 150.765C194.58 151.22 194.137 151.615 193.746 151.949C193.381 152.253 193.16 152.404 193.082 152.404C193.004 152.404 192.965 152.253 192.965 151.949C192.965 151.463 193.173 150.765 193.59 149.854C194.007 148.943 194.593 147.911 195.349 146.758C195.922 145.877 196.548 144.997 197.225 144.116C197.903 143.236 198.567 142.462 199.219 141.794C199.87 141.096 200.457 140.534 200.978 140.109C201.499 139.684 201.89 139.471 202.151 139.471C202.385 139.471 202.502 139.608 202.502 139.881Z" fill="white"/>
<path d="M219.835 150.856C219.835 150.795 219.782 150.765 219.678 150.765C219.496 150.765 219.235 150.735 218.896 150.674C218.558 150.583 218.388 150.355 218.388 149.991C218.388 149.262 218.506 148.594 218.74 147.987C218.975 147.38 219.092 146.712 219.092 145.983C219.092 145.498 218.975 145.012 218.74 144.526C218.506 144.04 218.219 143.798 217.88 143.798C217.802 143.798 217.711 143.858 217.606 143.98C217.502 144.071 217.372 144.192 217.216 144.344C216.851 144.799 216.382 145.422 215.808 146.211C215.261 146.97 214.649 147.729 213.971 148.488C213.528 148.974 213.085 149.429 212.642 149.854C212.225 150.249 211.821 150.598 211.43 150.902C211.066 151.205 210.727 151.448 210.414 151.63C210.127 151.812 209.906 151.903 209.749 151.903C209.541 151.903 209.398 151.797 209.32 151.585C209.267 151.342 209.241 151.114 209.241 150.902C209.241 150.477 209.372 149.885 209.632 149.126C209.893 148.336 210.193 147.532 210.531 146.712C210.896 145.892 211.248 145.118 211.587 144.39C211.952 143.661 212.238 143.13 212.447 142.796C212.473 142.765 212.486 142.69 212.486 142.568C212.486 142.325 212.368 142.022 212.134 141.657C211.899 141.263 211.691 141.065 211.509 141.065C211.3 141.065 211.066 141.202 210.805 141.475C210.544 141.718 210.271 142.052 209.984 142.477C209.723 142.902 209.45 143.403 209.163 143.98C208.877 144.557 208.603 145.164 208.342 145.801C207.899 146.955 207.508 148.124 207.17 149.308C206.857 150.461 206.701 151.387 206.701 152.086C206.701 152.328 206.766 152.571 206.896 152.814C207.026 153.027 207.196 153.224 207.404 153.406C207.613 153.588 207.834 153.74 208.069 153.862C208.329 153.983 208.564 154.044 208.772 154.044C209.059 154.044 209.45 153.877 209.945 153.543C210.44 153.209 210.961 152.784 211.509 152.268C212.082 151.752 212.655 151.19 213.228 150.583C213.828 149.945 214.362 149.368 214.831 148.852C215.326 148.306 215.73 147.851 216.043 147.486C216.382 147.092 216.577 146.864 216.629 146.803L216.707 146.894C216.603 147.107 216.46 147.486 216.277 148.033C216.121 148.579 216.043 149.293 216.043 150.173C216.043 150.993 216.212 151.721 216.551 152.359C216.89 152.966 217.281 153.27 217.724 153.27C217.88 153.27 218.049 153.179 218.232 152.996C218.414 152.814 218.597 152.617 218.779 152.404C218.962 152.161 219.118 151.934 219.248 151.721C219.379 151.478 219.47 151.327 219.522 151.266C219.73 151.023 219.835 150.886 219.835 150.856Z" fill="white"/>
<path d="M232.493 147.031C232.572 146.879 232.611 146.712 232.611 146.53C232.637 146.317 232.585 146.211 232.454 146.211C232.376 146.302 232.207 146.5 231.946 146.803C231.712 147.076 231.412 147.41 231.047 147.805C230.708 148.169 230.331 148.579 229.914 149.035C229.523 149.46 229.132 149.854 228.741 150.219C227.985 150.917 227.282 151.448 226.63 151.812C226.005 152.177 225.536 152.359 225.223 152.359C224.91 152.359 224.754 152.146 224.754 151.721C224.754 151.448 224.962 151.023 225.379 150.446C225.822 149.839 226.291 149.186 226.786 148.488C227.308 147.79 227.777 147.092 228.194 146.393C228.637 145.695 228.858 145.118 228.858 144.663C228.858 143.843 228.611 143.266 228.115 142.932C227.62 142.568 227.008 142.386 226.278 142.386C225.835 142.386 225.457 142.371 225.145 142.34C224.858 142.31 224.715 142.219 224.715 142.067C224.715 142.006 224.858 141.779 225.145 141.384C225.431 140.989 225.757 140.549 226.122 140.063C226.539 139.547 226.878 139.046 227.138 138.561C227.425 138.075 227.568 137.756 227.568 137.604C227.568 137.088 227.164 136.83 226.356 136.83C225.939 136.83 225.47 137.043 224.949 137.468C224.428 137.893 223.933 138.394 223.464 138.971C222.995 139.517 222.591 140.094 222.252 140.701C221.939 141.278 221.783 141.733 221.783 142.067C221.783 142.583 221.965 142.978 222.33 143.251C222.695 143.524 223.164 143.661 223.737 143.661C224.259 143.661 224.728 143.631 225.145 143.57C225.588 143.509 225.979 143.479 226.317 143.479C226.734 143.479 226.943 143.585 226.943 143.798C226.943 144.101 226.721 144.572 226.278 145.209C225.861 145.816 225.392 146.5 224.871 147.259C224.376 147.987 223.907 148.731 223.464 149.49C223.047 150.249 222.838 150.917 222.838 151.494C222.838 152.192 223.021 152.723 223.386 153.087C223.777 153.421 224.193 153.588 224.636 153.588C225.34 153.588 226.096 153.33 226.904 152.814C227.712 152.268 228.48 151.63 229.21 150.902C230.174 149.96 230.943 149.126 231.516 148.397C232.09 147.638 232.415 147.183 232.493 147.031Z" fill="white"/>
<path d="M248.455 143.752C248.585 143.418 248.598 143.175 248.494 143.023C248.415 142.872 248.337 142.796 248.259 142.796C248.155 142.948 247.985 143.175 247.751 143.479C247.516 143.782 247.23 144.132 246.891 144.526C246.552 144.921 246.187 145.361 245.796 145.847C245.406 146.302 245.015 146.758 244.624 147.213C243.894 148.002 243.203 148.701 242.552 149.308C241.901 149.915 241.431 150.219 241.145 150.219C240.936 150.219 240.793 150.127 240.715 149.945C240.663 149.763 240.637 149.551 240.637 149.308C240.637 149.004 240.689 148.655 240.793 148.26C240.897 147.866 241.014 147.471 241.145 147.076C241.275 146.651 241.392 146.257 241.497 145.892C241.601 145.498 241.653 145.164 241.653 144.891C241.653 144.466 241.549 144.162 241.34 143.98C241.158 143.798 240.91 143.707 240.598 143.707C240.467 143.707 240.272 143.782 240.011 143.934C240.168 143.631 240.337 143.282 240.519 142.887C240.702 142.492 240.858 142.113 240.988 141.748C241.145 141.354 241.262 141.005 241.34 140.701C241.444 140.367 241.497 140.109 241.497 139.927C241.497 139.229 241.314 138.712 240.949 138.379C240.611 138.045 240.181 137.878 239.659 137.878C239.034 137.878 238.356 138.136 237.627 138.652C236.897 139.138 236.167 139.79 235.438 140.61C234.734 141.399 234.044 142.31 233.366 143.342C232.714 144.344 232.128 145.376 231.607 146.439C231.112 147.501 230.708 148.534 230.395 149.535C230.082 150.537 229.926 151.418 229.926 152.177C229.926 152.632 230.004 153.042 230.161 153.406C230.343 153.771 230.565 153.953 230.825 153.953C231.008 153.953 231.294 153.801 231.685 153.497C232.076 153.163 232.506 152.784 232.975 152.359C233.444 151.903 233.913 151.433 234.382 150.947C234.877 150.431 235.294 149.991 235.633 149.627C235.972 149.262 236.337 148.883 236.728 148.488C237.145 148.063 237.522 147.684 237.861 147.35C238.226 146.985 238.526 146.682 238.76 146.439C239.021 146.196 239.164 146.075 239.19 146.075C239.242 146.075 239.282 146.105 239.308 146.166C239.36 146.226 239.373 146.302 239.347 146.393C239.295 146.515 239.216 146.864 239.112 147.441C239.034 148.017 238.995 148.503 238.995 148.898C238.995 149.687 239.099 150.355 239.308 150.902C239.516 151.448 239.855 151.721 240.324 151.721C240.637 151.721 241.001 151.6 241.418 151.357C241.835 151.084 242.239 150.765 242.63 150.401C243.047 150.036 243.438 149.657 243.803 149.262C244.194 148.868 244.533 148.534 244.819 148.26C245.08 147.987 245.406 147.623 245.796 147.167C246.187 146.682 246.565 146.211 246.93 145.756C247.321 145.27 247.66 144.845 247.946 144.481C248.233 144.086 248.402 143.843 248.455 143.752ZM240.676 139.881C240.676 140.003 240.584 140.261 240.402 140.655C240.22 141.05 240.011 141.475 239.777 141.931C239.568 142.356 239.36 142.765 239.151 143.16C238.943 143.524 238.812 143.737 238.76 143.798C238.656 143.949 238.552 144.086 238.448 144.207C238.343 144.299 238.291 144.374 238.291 144.435C238.291 144.496 238.356 144.572 238.487 144.663C238.617 144.754 238.773 144.83 238.956 144.891C238.565 145.285 238.148 145.725 237.705 146.211C237.262 146.697 236.806 147.183 236.337 147.668C235.894 148.124 235.399 148.64 234.851 149.217C234.304 149.763 233.77 150.279 233.249 150.765C232.754 151.22 232.311 151.615 231.92 151.949C231.555 152.253 231.333 152.404 231.255 152.404C231.177 152.404 231.138 152.253 231.138 151.949C231.138 151.463 231.346 150.765 231.763 149.854C232.18 148.943 232.767 147.911 233.522 146.758C234.096 145.877 234.721 144.997 235.399 144.116C236.076 143.236 236.741 142.462 237.392 141.794C238.044 141.096 238.63 140.534 239.151 140.109C239.672 139.684 240.063 139.471 240.324 139.471C240.558 139.471 240.676 139.608 240.676 139.881Z" fill="white"/>
<path d="M260.431 142.113C260.431 141.475 260.21 140.989 259.767 140.655C259.35 140.322 258.92 140.155 258.477 140.155C257.643 140.155 256.705 140.413 255.663 140.929C254.646 141.445 253.604 142.082 252.535 142.841C251.493 143.6 250.477 144.405 249.486 145.255C248.522 146.105 247.688 146.864 246.985 147.532C247.271 147.046 247.545 146.56 247.806 146.075C248.092 145.589 248.34 145.149 248.548 144.754C248.783 144.359 248.965 144.04 249.096 143.798C249.226 143.555 249.291 143.403 249.291 143.342C249.291 143.16 249.213 142.963 249.056 142.75C248.9 142.507 248.718 142.386 248.509 142.386C248.379 142.386 248.144 142.568 247.806 142.932C247.493 143.297 247.128 143.767 246.711 144.344C246.294 144.891 245.851 145.498 245.382 146.166C244.913 146.834 244.483 147.471 244.092 148.078C243.701 148.655 243.388 149.156 243.154 149.581C242.893 150.006 242.763 150.279 242.763 150.401C242.763 150.522 242.828 150.659 242.958 150.811C243.089 150.962 243.245 151.114 243.428 151.266C243.584 151.387 243.74 151.494 243.897 151.585C244.027 151.676 244.118 151.721 244.17 151.721C244.196 151.721 244.366 151.569 244.678 151.266C245.017 150.932 245.46 150.522 246.007 150.036C246.555 149.52 247.167 148.943 247.845 148.306C248.548 147.638 249.291 146.97 250.073 146.302C250.802 145.665 251.545 145.042 252.301 144.435C253.057 143.828 253.786 143.297 254.49 142.841C255.193 142.356 255.845 141.976 256.444 141.703C257.07 141.399 257.604 141.247 258.047 141.247C258.412 141.247 258.594 141.46 258.594 141.885C258.594 142.067 258.49 142.416 258.282 142.932C258.073 143.448 257.812 144.056 257.5 144.754C257.213 145.452 256.887 146.211 256.523 147.031C256.184 147.82 255.858 148.594 255.545 149.353C255.259 150.112 255.011 150.826 254.803 151.494C254.594 152.131 254.49 152.632 254.49 152.996C254.49 153.482 254.633 153.922 254.92 154.317C255.206 154.712 255.428 154.909 255.584 154.909C255.741 154.909 255.975 154.803 256.288 154.59C256.601 154.378 256.913 154.135 257.226 153.862C257.565 153.588 257.852 153.33 258.086 153.087C258.321 152.845 258.438 152.678 258.438 152.587C258.438 152.495 258.425 152.404 258.399 152.313C258.373 152.192 258.308 152.131 258.203 152.131C258.047 152.131 257.852 152.222 257.617 152.404C257.382 152.556 257.2 152.632 257.07 152.632C256.939 152.632 256.874 152.541 256.874 152.359C256.874 152.328 256.952 152.116 257.109 151.721C257.291 151.296 257.513 150.765 257.773 150.127C258.06 149.49 258.347 148.776 258.633 147.987C258.946 147.198 259.233 146.439 259.493 145.71C259.78 144.951 260.001 144.253 260.158 143.615C260.34 142.978 260.431 142.477 260.431 142.113Z" fill="white"/>
<path d="M277.092 125.582C277.092 125.43 277.026 125.294 276.896 125.172C276.766 125.021 276.609 124.899 276.427 124.808C276.271 124.717 276.088 124.641 275.88 124.58C275.697 124.52 275.541 124.489 275.411 124.489C275.306 124.489 275.072 124.732 274.707 125.218C274.342 125.673 273.886 126.281 273.339 127.04C272.818 127.768 272.231 128.618 271.58 129.59C270.954 130.531 270.316 131.487 269.665 132.459C269.039 133.43 268.44 134.371 267.866 135.282C267.319 136.162 266.863 136.921 266.498 137.559C266.394 137.711 266.29 137.878 266.186 138.06C266.107 138.212 266.003 138.379 265.873 138.561C265.247 138.561 264.752 138.576 264.387 138.606C264.023 138.606 263.749 138.621 263.567 138.652C263.41 138.652 263.293 138.652 263.215 138.652C263.163 138.652 263.111 138.652 263.058 138.652C262.902 138.652 262.759 138.697 262.628 138.788C262.498 138.879 262.433 139.001 262.433 139.153C262.433 139.304 262.524 139.365 262.707 139.335C262.889 139.304 263.071 139.289 263.254 139.289C263.306 139.289 263.345 139.289 263.371 139.289C263.423 139.289 263.514 139.289 263.645 139.289C263.775 139.289 263.97 139.304 264.231 139.335C264.518 139.335 264.922 139.335 265.443 139.335C264.87 140.337 264.27 141.43 263.645 142.614C263.045 143.798 262.485 145.027 261.964 146.302C261.469 147.547 261.052 148.807 260.713 150.082C260.374 151.327 260.205 152.511 260.205 153.634C260.205 154.605 260.413 155.364 260.83 155.911C261.247 156.457 261.781 156.73 262.433 156.73C262.85 156.73 263.267 156.639 263.684 156.457C264.101 156.305 264.479 156.108 264.817 155.865C265.156 155.653 265.456 155.425 265.716 155.182C265.977 154.97 266.173 154.803 266.303 154.681C266.355 154.56 266.355 154.438 266.303 154.317C266.251 154.196 266.173 154.104 266.068 154.044C265.938 154.165 265.743 154.332 265.482 154.545C265.247 154.757 264.961 154.955 264.622 155.137C264.309 155.349 263.97 155.531 263.606 155.683C263.241 155.835 262.876 155.911 262.511 155.911C262.146 155.911 261.834 155.729 261.573 155.364C261.312 155 261.182 154.499 261.182 153.862C261.182 152.92 261.417 151.828 261.886 150.583C262.355 149.338 262.928 148.063 263.606 146.758C264.283 145.422 265.013 144.116 265.795 142.841C266.603 141.536 267.345 140.367 268.023 139.335H269.117C269.169 139.335 269.195 139.365 269.195 139.426C269.195 139.487 269.182 139.547 269.156 139.608C269.156 139.669 269.156 139.73 269.156 139.79C269.156 139.912 269.169 139.988 269.195 140.018C269.248 140.048 269.365 140.063 269.547 140.063C269.651 140.063 269.86 140.048 270.173 140.018C270.511 139.957 270.837 139.881 271.15 139.79C271.489 139.699 271.788 139.593 272.049 139.471C272.31 139.32 272.44 139.153 272.44 138.971C272.44 138.849 272.362 138.743 272.205 138.652C272.049 138.53 271.867 138.47 271.658 138.47C271.554 138.47 271.202 138.47 270.603 138.47C270.029 138.47 269.326 138.485 268.492 138.515C269.378 137.088 270.251 135.722 271.111 134.417C271.997 133.081 272.792 131.897 273.495 130.865C274.225 129.833 274.824 128.998 275.293 128.36C275.789 127.692 276.088 127.282 276.192 127.131C276.401 126.888 276.596 126.645 276.779 126.402C276.987 126.159 277.092 125.886 277.092 125.582Z" fill="white"/>
<path d="M229.51 160.976C229.51 160.516 229.447 160.039 229.321 159.543C229.227 159.013 229.007 158.553 228.662 158.164C228.347 157.739 227.876 157.403 227.248 157.155C226.651 156.872 225.835 156.731 224.798 156.731C222.756 156.731 220.573 157.279 218.249 158.376C215.956 159.473 213.678 160.923 211.417 162.728C209.155 164.497 206.972 166.531 204.867 168.831C202.794 171.095 200.957 173.412 199.355 175.783C197.784 178.118 196.528 180.417 195.585 182.682C194.643 184.911 194.172 186.874 194.172 188.572C194.172 189.634 194.313 190.554 194.596 191.332C194.91 192.11 195.302 192.747 195.774 193.243C196.245 193.738 196.763 194.109 197.329 194.357C197.925 194.569 198.522 194.675 199.119 194.675C200.815 194.675 202.559 194.392 204.349 193.826C206.171 193.26 207.914 192.57 209.579 191.757C211.275 190.943 212.83 190.094 214.244 189.209C215.689 188.289 216.867 187.493 217.777 186.821C217.558 187.352 217.228 188.077 216.788 188.997C216.348 189.881 215.861 190.819 215.327 191.81C214.825 192.765 214.322 193.702 213.82 194.622C213.317 195.542 212.893 196.268 212.547 196.798C211.417 196.621 210.003 196.71 208.307 197.064C206.611 197.382 204.804 197.913 202.888 198.656C201.004 199.434 199.103 200.372 197.187 201.468C195.302 202.565 193.606 203.768 192.099 205.077C190.591 206.421 189.366 207.854 188.423 209.376C187.45 210.932 186.963 212.507 186.963 214.099C186.963 214.842 187.088 215.461 187.34 215.956C187.591 216.487 187.905 216.912 188.282 217.23C188.659 217.584 189.067 217.831 189.507 217.973C189.947 218.114 190.371 218.185 190.779 218.185C193.135 218.185 195.46 217.584 197.753 216.381C200.046 215.213 202.244 213.674 204.349 211.764C206.454 209.853 208.401 207.695 210.192 205.289C211.982 202.919 213.553 200.548 214.903 198.178C215.312 198.355 215.626 198.603 215.846 198.921C216.066 199.239 216.254 199.54 216.411 199.823C216.6 199.894 216.772 199.859 216.929 199.717C217.086 199.611 217.165 199.469 217.165 199.292C217.008 198.939 216.804 198.567 216.552 198.178C216.301 197.789 215.94 197.453 215.469 197.17C215.908 196.462 216.395 195.631 216.929 194.675C217.495 193.685 218.044 192.659 218.578 191.597C219.112 190.501 219.631 189.422 220.133 188.36C220.636 187.263 221.076 186.255 221.453 185.335C221.515 185.194 221.625 185.07 221.782 184.964C221.94 184.858 222.097 184.734 222.254 184.592C222.442 184.451 222.599 184.291 222.725 184.115C222.85 183.938 222.913 183.708 222.913 183.425C222.913 183.248 222.678 183.071 222.207 182.894C221.735 182.717 221.044 182.629 220.133 182.629C219.882 182.629 219.662 182.699 219.474 182.841C219.317 182.982 219.16 183.159 219.003 183.372C218.845 183.584 218.688 183.814 218.531 184.062C218.374 184.309 218.186 184.521 217.966 184.698C217.558 185.052 216.725 185.689 215.469 186.609C214.212 187.529 212.72 188.466 210.993 189.422C209.296 190.377 207.474 191.226 205.527 191.969C203.579 192.676 201.695 193.03 199.873 193.03C198.522 193.03 197.548 192.606 196.952 191.757C196.355 190.872 196.056 189.793 196.056 188.519C196.056 187.14 196.559 185.459 197.564 183.478C198.569 181.496 199.889 179.409 201.522 177.216C203.187 175.022 205.071 172.846 207.176 170.688C209.312 168.53 211.511 166.584 213.773 164.85C216.034 163.117 218.264 161.719 220.463 160.658C222.662 159.561 224.672 159.013 226.494 159.013C227.908 159.013 228.614 159.561 228.614 160.658C228.614 161.401 228.332 162.215 227.766 163.099C227.201 163.984 226.557 164.815 225.835 165.593C225.144 166.372 224.484 167.026 223.856 167.557C223.227 168.088 222.85 168.353 222.725 168.353C222.599 168.353 222.505 168.335 222.442 168.3C222.379 168.229 222.316 168.158 222.254 168.088C222.191 167.981 222.112 167.911 222.018 167.875C221.924 167.805 221.782 167.769 221.594 167.769C221.374 167.769 220.95 167.999 220.322 168.459C219.694 168.884 218.971 169.432 218.154 170.104C217.369 170.776 216.537 171.537 215.657 172.386C214.778 173.2 213.961 173.996 213.207 174.774C212.485 175.553 211.888 176.26 211.417 176.897C210.945 177.499 210.71 177.923 210.71 178.171C210.71 178.666 210.851 179.073 211.134 179.391C211.448 179.674 211.778 179.816 212.123 179.816C212.406 179.816 213.034 179.48 214.008 178.808C214.982 178.1 216.113 177.198 217.401 176.101C218.688 175.004 220.039 173.766 221.453 172.386C222.898 171.006 224.201 169.627 225.363 168.247C226.557 166.832 227.546 165.487 228.332 164.214C229.117 162.94 229.51 161.861 229.51 160.976ZM211.841 198.019C211.118 199.222 210.27 200.531 209.296 201.946C208.323 203.361 207.255 204.776 206.092 206.192C204.93 207.642 203.689 209.022 202.37 210.331C201.082 211.64 199.747 212.808 198.365 213.834C197.014 214.86 195.664 215.673 194.313 216.275C192.962 216.876 191.659 217.177 190.402 217.177C189.334 217.177 188.659 216.894 188.376 216.328C188.062 215.762 187.905 215.16 187.905 214.523C187.905 213.144 188.345 211.764 189.224 210.384C190.104 209.004 191.25 207.677 192.664 206.404C194.077 205.166 195.664 204.016 197.423 202.954C199.213 201.893 200.988 200.973 202.747 200.195C204.506 199.452 206.187 198.868 207.789 198.443C209.422 198.054 210.773 197.913 211.841 198.019Z" fill="white"/>
<path d="M234.342 191.642C234.42 191.494 234.46 191.332 234.46 191.155C234.486 190.949 234.434 190.846 234.303 190.846C234.224 190.934 234.054 191.126 233.792 191.42C233.557 191.686 233.256 192.01 232.889 192.393C232.549 192.747 232.169 193.145 231.75 193.587C231.358 194 230.965 194.384 230.573 194.737C229.813 195.415 229.107 195.931 228.452 196.285C227.824 196.639 227.353 196.816 227.039 196.816C226.725 196.816 226.568 196.61 226.568 196.197C226.568 195.931 226.777 195.519 227.196 194.958C227.641 194.369 228.112 193.735 228.609 193.057C229.133 192.379 229.604 191.701 230.023 191.022C230.468 190.344 230.69 189.784 230.69 189.342C230.69 188.546 230.442 187.986 229.944 187.661C229.447 187.308 228.832 187.131 228.099 187.131C227.654 187.131 227.274 187.116 226.96 187.086C226.672 187.057 226.528 186.969 226.528 186.821C226.528 186.762 226.672 186.541 226.96 186.158C227.248 185.774 227.575 185.347 227.942 184.875C228.361 184.374 228.701 183.888 228.963 183.416C229.251 182.944 229.395 182.635 229.395 182.487C229.395 181.986 228.989 181.735 228.177 181.735C227.759 181.735 227.287 181.942 226.764 182.354C226.24 182.767 225.743 183.254 225.272 183.814C224.801 184.345 224.395 184.905 224.055 185.494C223.741 186.055 223.583 186.497 223.583 186.821C223.583 187.322 223.767 187.706 224.133 187.971C224.5 188.236 224.971 188.369 225.547 188.369C226.07 188.369 226.541 188.34 226.96 188.281C227.405 188.222 227.798 188.192 228.138 188.192C228.557 188.192 228.766 188.295 228.766 188.502C228.766 188.797 228.544 189.253 228.099 189.873C227.68 190.462 227.209 191.126 226.685 191.863C226.188 192.57 225.717 193.293 225.272 194.03C224.853 194.767 224.644 195.415 224.644 195.976C224.644 196.654 224.827 197.17 225.193 197.523C225.586 197.848 226.005 198.01 226.45 198.01C227.157 198.01 227.916 197.759 228.727 197.258C229.539 196.727 230.311 196.108 231.044 195.401C232.012 194.487 232.784 193.676 233.36 192.968C233.936 192.231 234.263 191.789 234.342 191.642Z" fill="white"/>
<path d="M244.838 188.767C244.786 188.708 244.72 188.575 244.642 188.369C244.589 188.133 244.524 187.897 244.445 187.661V187.396C244.445 186.423 244.249 185.73 243.857 185.317C243.464 184.875 243.019 184.654 242.522 184.654C242.181 184.654 241.802 184.713 241.383 184.831C240.964 184.949 240.663 185.008 240.48 185.008C240.401 185.008 240.323 184.964 240.244 184.875C240.192 184.757 240.126 184.639 240.048 184.521C239.969 184.374 239.891 184.256 239.812 184.168C239.734 184.05 239.629 183.991 239.498 183.991C239.132 183.991 238.7 184.168 238.202 184.521C237.705 184.875 237.182 185.347 236.632 185.937C236.082 186.526 235.532 187.19 234.983 187.927C234.459 188.664 233.975 189.416 233.53 190.182C233.085 190.949 232.732 191.701 232.47 192.438C232.208 193.175 232.077 193.823 232.077 194.384C232.077 195.356 232.352 196.094 232.902 196.595C233.478 197.067 234.184 197.302 235.022 197.302C235.833 197.302 236.671 197.037 237.535 196.506C238.399 195.946 239.223 195.268 240.009 194.472C240.82 193.676 241.553 192.821 242.207 191.907C242.862 190.964 243.385 190.108 243.778 189.342C243.961 189.312 244.131 189.283 244.288 189.253C244.445 189.195 244.563 189.165 244.642 189.165C244.956 189.165 245.021 189.032 244.838 188.767ZM243.032 186.025C243.032 186.084 242.901 186.261 242.639 186.556C242.404 186.851 242.286 187.249 242.286 187.75C242.286 188.133 242.325 188.384 242.404 188.502C242.508 188.62 242.587 188.708 242.639 188.767C242.639 189.003 242.495 189.357 242.207 189.828C241.946 190.271 241.579 190.772 241.108 191.332C240.663 191.892 240.153 192.467 239.577 193.057C239.027 193.646 238.464 194.177 237.888 194.649C237.339 195.121 236.802 195.519 236.278 195.843C235.781 196.138 235.349 196.285 234.983 196.285C234.25 196.285 233.883 195.872 233.883 195.047C233.883 194.575 234.014 194.015 234.276 193.366C234.564 192.718 234.943 192.054 235.415 191.376C235.886 190.698 236.422 190.035 237.025 189.386C237.627 188.708 238.242 188.118 238.87 187.617C239.524 187.086 240.179 186.659 240.833 186.335C241.488 186.01 242.09 185.848 242.639 185.848C242.901 185.848 243.032 185.907 243.032 186.025Z" fill="white"/>
<path d="M257.747 195.356C257.747 195.298 257.694 195.268 257.59 195.268C257.406 195.268 257.145 195.239 256.804 195.18C256.464 195.091 256.294 194.87 256.294 194.516C256.294 193.809 256.412 193.16 256.647 192.57C256.883 191.981 257.001 191.332 257.001 190.624C257.001 190.153 256.883 189.681 256.647 189.209C256.412 188.738 256.124 188.502 255.783 188.502C255.705 188.502 255.613 188.561 255.509 188.679C255.404 188.767 255.273 188.885 255.116 189.032C254.749 189.475 254.278 190.079 253.702 190.846C253.153 191.583 252.538 192.32 251.857 193.057C251.412 193.529 250.967 193.971 250.522 194.384C250.103 194.767 249.697 195.106 249.305 195.401C248.938 195.696 248.598 195.931 248.284 196.108C247.996 196.285 247.773 196.374 247.616 196.374C247.407 196.374 247.263 196.27 247.185 196.064C247.132 195.828 247.106 195.607 247.106 195.401C247.106 194.988 247.237 194.413 247.499 193.676C247.76 192.909 248.061 192.128 248.402 191.332C248.768 190.536 249.122 189.784 249.462 189.077C249.828 188.369 250.116 187.853 250.326 187.529C250.352 187.499 250.365 187.426 250.365 187.308C250.365 187.072 250.247 186.777 250.012 186.423C249.776 186.04 249.567 185.848 249.383 185.848C249.174 185.848 248.938 185.981 248.677 186.246C248.415 186.482 248.14 186.806 247.852 187.219C247.59 187.632 247.315 188.118 247.027 188.679C246.74 189.239 246.465 189.828 246.203 190.448C245.758 191.568 245.365 192.703 245.025 193.853C244.711 194.973 244.554 195.872 244.554 196.551C244.554 196.786 244.619 197.022 244.75 197.258C244.881 197.465 245.051 197.656 245.261 197.833C245.47 198.01 245.692 198.157 245.928 198.275C246.19 198.393 246.425 198.452 246.635 198.452C246.923 198.452 247.315 198.29 247.813 197.966C248.31 197.641 248.834 197.229 249.383 196.727C249.959 196.226 250.535 195.681 251.111 195.091C251.713 194.472 252.25 193.912 252.721 193.411C253.218 192.88 253.624 192.438 253.938 192.084C254.278 191.701 254.475 191.479 254.527 191.42L254.605 191.509C254.501 191.715 254.357 192.084 254.174 192.615C254.017 193.145 253.938 193.838 253.938 194.693C253.938 195.489 254.108 196.197 254.448 196.816C254.789 197.406 255.181 197.7 255.626 197.7C255.783 197.7 255.954 197.612 256.137 197.435C256.32 197.258 256.503 197.067 256.687 196.86C256.87 196.624 257.027 196.403 257.158 196.197C257.289 195.961 257.38 195.813 257.433 195.755C257.642 195.519 257.747 195.386 257.747 195.356Z" fill="white"/>
<path d="M272.193 188.811C272.193 186.482 271.107 185.317 268.934 185.317C268.882 185.317 268.843 185.332 268.816 185.362C268.79 185.362 268.751 185.362 268.699 185.362C269.379 184.064 269.916 183.003 270.309 182.178C270.701 181.323 270.897 180.807 270.897 180.63C270.897 180.453 270.806 180.364 270.623 180.364C270.361 180.364 270.112 180.497 269.877 180.762C269.641 180.998 269.419 181.264 269.209 181.558C269.078 181.765 268.764 182.266 268.267 183.062C267.769 183.829 267.167 184.802 266.461 185.981C265.204 186.571 263.895 187.514 262.534 188.811C261.199 190.108 259.89 191.612 258.608 193.322C257.325 195.003 256.108 196.816 254.956 198.762C253.804 200.708 252.797 202.609 251.933 204.467C251.043 206.354 250.349 208.123 249.852 209.774C249.328 211.425 249.066 212.81 249.066 213.931C249.066 214.579 249.184 215.14 249.42 215.611C249.655 216.083 249.904 216.319 250.166 216.319C250.375 216.319 250.873 215.759 251.658 214.638C252.417 213.518 253.333 212.103 254.406 210.393C255.453 208.683 256.579 206.811 257.783 204.776C258.961 202.771 260.074 200.87 261.121 199.071C261.461 199.13 261.84 199.16 262.259 199.16C262.678 199.16 263.045 199.16 263.359 199.16C264.144 199.16 264.995 198.968 265.911 198.585C266.853 198.231 267.73 197.833 268.542 197.391C269.353 196.919 270.047 196.477 270.623 196.064C271.225 195.622 271.578 195.342 271.683 195.224C271.892 195.047 271.997 194.87 271.997 194.693C271.997 194.516 271.931 194.428 271.801 194.428C271.722 194.428 271.63 194.472 271.526 194.56C271.395 194.649 271.212 194.752 270.976 194.87C270.74 194.958 270.492 195.062 270.23 195.18C269.968 195.298 269.72 195.415 269.484 195.533C269.248 195.651 269.078 195.74 268.974 195.799L268.895 195.533C269.026 195.445 269.275 195.165 269.641 194.693C270.007 194.192 270.374 193.602 270.74 192.924C271.133 192.246 271.473 191.538 271.761 190.801C272.049 190.064 272.193 189.401 272.193 188.811ZM270.701 188.502C270.701 189.475 270.518 190.403 270.151 191.288C269.785 192.172 269.353 192.968 268.856 193.676C268.385 194.384 267.9 194.973 267.403 195.445C266.932 195.917 266.565 196.241 266.304 196.418C266.12 196.536 265.845 196.668 265.479 196.816C265.113 196.934 264.72 197.052 264.301 197.17C263.882 197.288 263.45 197.391 263.005 197.479C262.587 197.568 262.22 197.641 261.906 197.7C261.984 197.553 262.05 197.435 262.102 197.347C262.181 197.229 262.259 197.096 262.338 196.949C263.385 195.121 264.419 193.278 265.44 191.42C266.461 189.563 267.39 187.853 268.228 186.29C268.332 186.261 268.489 186.246 268.699 186.246C269.275 186.246 269.746 186.438 270.112 186.821C270.505 187.175 270.701 187.735 270.701 188.502ZM265.597 187.396C264.707 188.9 263.751 190.536 262.73 192.305C261.71 194.044 260.715 195.784 259.746 197.523C259.092 198.703 258.411 199.926 257.705 201.194C256.972 202.491 256.265 203.759 255.584 204.997C254.904 206.236 254.249 207.4 253.621 208.491C252.993 209.612 252.443 210.584 251.972 211.41C251.475 212.265 251.082 212.943 250.794 213.444C250.48 213.946 250.31 214.196 250.284 214.196C250.153 214.196 250.087 214.093 250.087 213.887C250.061 213.68 250.048 213.444 250.048 213.179C250.048 212.412 250.271 211.351 250.716 209.995C251.161 208.639 251.776 207.12 252.561 205.44C253.346 203.789 254.249 202.049 255.27 200.221C256.291 198.423 257.377 196.698 258.529 195.047C259.681 193.396 260.859 191.892 262.063 190.536C263.293 189.18 264.471 188.133 265.597 187.396Z" fill="white"/>
<path fill-rule="evenodd" clip-rule="evenodd" d="M99.916 55.5479C100.014 65.3441 99.3272 83.3601 98.8366 93.0437C98.346 102.727 98.1497 104.191 97.5609 105.542C96.9722 106.781 95.8928 107.907 94.7153 108.357C93.5377 108.808 92.164 108.695 89.5145 103.628C86.8651 98.4486 82.9401 88.3145 79.2112 81.2207C75.4824 74.1269 72.048 70.1859 70.7723 67.8213C69.4967 65.4567 70.3798 64.7811 72.9311 62.3039C75.4824 59.8267 79.7019 55.4353 83.5288 51.9446C87.3558 48.454 90.5939 45.7516 92.949 44.2878C95.304 42.824 96.5797 42.5988 97.6591 43.387C98.8366 43.95 99.7197 45.7516 99.916 55.5479Z" fill="#AD9B70"/>
<path fill-rule="evenodd" clip-rule="evenodd" d="M67.9266 59.1511C71.3611 68.6095 78.3281 86.9633 82.155 96.9847C85.8838 107.006 86.3745 108.47 86.3745 109.596C86.3745 110.722 85.9819 111.285 82.94 111.51C79.8981 111.735 74.1086 111.735 70.6742 111.735C67.2397 111.735 66.1603 111.623 64.9828 111.06C63.8053 110.497 62.5297 109.371 61.8428 108.47C61.1559 107.457 61.0578 106.668 60.6653 97.0973C60.2728 87.5263 59.4877 69.0599 59.4877 59.6014C59.4877 50.143 60.2727 49.6926 61.3521 49.4674C62.3334 49.1296 63.6091 49.017 64.1978 49.1296C64.6885 49.2422 64.4922 49.6926 67.9266 59.1511Z" fill="#AD9B70"/>
<path fill-rule="evenodd" clip-rule="evenodd" d="M51.4414 54.3093C48.9882 58.1377 44.7688 65.1189 40.5493 74.1269C36.3299 83.1349 31.9142 94.0572 29.7554 100.25C27.5966 106.443 27.5966 107.907 27.891 109.033C28.2835 110.159 28.9704 111.06 32.0123 111.398C35.0542 111.735 40.4512 111.51 44.4744 111.398C48.4976 111.285 51.2451 111.398 53.2077 110.835C55.1702 110.272 56.2496 109.146 56.7402 106.443C57.2309 103.853 57.0346 99.6872 56.8384 90.2288C56.6421 80.7703 56.2496 66.1323 56.0533 58.2503C55.8571 50.4809 55.759 49.5801 55.2683 49.5801C54.6796 49.6927 53.8946 50.4809 51.4414 54.3093Z" fill="#AD9B70"/>
<path fill-rule="evenodd" clip-rule="evenodd" d="M67.2398 43.3871C70.0855 43.6123 76.3656 44.0627 82.2532 42.4863C88.1408 40.9099 93.5378 37.1941 96.1872 34.4917C98.8366 31.7893 98.6404 29.9877 98.4441 26.0467C98.2478 22.1057 98.1497 16.1379 97.8553 12.0843C97.561 8.03066 97.0703 5.89125 95.9909 4.31485C94.9115 2.73845 93.1453 1.61244 89.2202 1.16204C85.2951 0.824241 79.2113 0.824241 75.5806 1.16204C71.9499 1.38724 70.7724 1.83764 69.7911 3.07625C68.8098 4.31485 68.1229 6.22905 66.7492 9.83226C65.3754 13.4355 63.4129 18.5025 61.2541 24.5829C59.0953 30.6633 56.8384 37.6445 56.3477 41.2477C55.8571 44.8509 57.2309 45.1887 58.9972 44.9635C60.7634 44.7383 63.1185 44.1753 64.0016 43.7249C64.8848 43.2745 64.3941 43.1619 67.2398 43.3871Z" fill="#AD9B70"/>
<path fill-rule="evenodd" clip-rule="evenodd" d="M50.6563 42.9367C52.3245 39.1083 54.6795 32.9153 56.7402 27.1727C58.8009 21.4301 60.6653 16.0253 61.7447 12.3095C62.8241 8.59365 63.0203 6.34165 62.7259 4.76524C62.3334 3.18884 61.4503 2.06284 60.6653 1.27463C59.8803 0.599033 59.2915 0.148632 55.4646 0.0360321C51.6376 -0.0765682 44.4744 0.0360323 40.9418 0.936834C37.4092 1.72504 37.4092 3.30144 37.998 7.35505C38.6849 11.4087 39.9605 17.9395 41.4324 25.8215C42.8062 33.8161 44.3762 43.1619 45.3575 47.3281C46.3388 51.4943 46.7313 50.5935 47.4182 49.3549C48.0069 48.2289 48.9882 46.7651 50.6563 42.9367Z" fill="#AD9B70"/>
<path fill-rule="evenodd" clip-rule="evenodd" d="M34.1711 8.25582C33.386 5.44081 32.8954 3.07621 32.0123 1.95021C31.031 0.711603 29.6572 0.711603 26.3209 0.824204C22.9846 0.824204 17.5876 0.936804 14.8401 1.49981C12.1907 2.06281 12.1907 3.07621 12.8776 5.21561C13.6626 7.46762 15.1345 10.8456 18.4708 17.489C21.8071 24.1325 27.0078 34.0413 30.5404 41.0225C34.0729 47.8911 35.8392 51.7195 37.5074 53.1833C39.1755 54.5345 40.6474 53.5211 41.2362 51.7195C41.8249 49.9179 41.6287 47.4407 40.7455 41.6981C39.8624 35.8429 38.2924 26.7223 37.0167 20.6418C35.8392 14.2236 34.8579 11.0708 34.1711 8.25582Z" fill="#AD9B70"/>
<path fill-rule="evenodd" clip-rule="evenodd" d="M30.3441 52.1699C29.461 48.4541 26.3209 40.6847 22.1996 32.0145C18.0783 23.3443 13.0738 13.8858 10.0319 8.93142C6.98996 3.97701 6.00869 3.52661 4.73305 3.52661C3.4574 3.52661 1.88737 3.97701 1.00423 5.55342C0.12109 7.12982 -0.075163 9.83222 0.0229637 17.0386C0.12109 24.2451 0.415471 36.0681 0.611724 43.2745C0.807977 50.3683 1.00423 52.8455 5.61619 54.0841C10.2281 55.3227 19.4521 55.3227 24.6528 55.4353C29.8535 55.5479 31.2273 55.8857 30.3441 52.1699Z" fill="#AD9B70"/>
<path fill-rule="evenodd" clip-rule="evenodd" d="M32.9936 63.0921C30.1479 65.9071 25.6341 70.2985 20.5315 74.0143C15.4289 77.7301 9.83567 80.9955 6.49936 83.3602C3.16305 85.7248 2.18178 87.1886 1.69115 90.2288C1.20052 93.269 1.29864 97.773 1.39677 100.701C1.59302 103.628 1.78928 105.092 2.77054 106.556C3.65369 108.02 5.22371 109.483 8.26564 110.046C11.3076 110.609 15.8214 110.497 18.6671 109.033C21.6109 107.569 22.8865 104.867 26.4191 96.4218C29.9516 87.9768 35.7411 73.6765 37.998 66.2449C40.3531 58.8133 39.2737 58.2503 38.0962 58.5881C37.1149 58.9259 35.9374 60.2771 32.9936 63.0921Z" fill="#AD9B70"/>
<path fill-rule="evenodd" clip-rule="evenodd" d="M23.279 66.0197C19.3539 69.0599 13.4663 73.6765 9.83561 76.2663C6.1068 78.8561 4.73303 79.4191 3.75176 79.5317C2.77049 79.5317 2.27986 79.0813 1.98548 76.0411C1.6911 73.0009 1.49484 67.4835 1.59297 64.3307C1.59297 61.1779 1.88735 60.2771 5.71429 60.1645C9.54123 60.0519 17.097 60.6149 21.9052 60.7275C26.7134 60.8401 28.8722 60.5023 29.0685 61.0653C28.9703 61.6283 27.1059 62.9795 23.279 66.0197Z" fill="#AD9B70"/>
<path d="M51.6376 103.178C73.0442 103.178 90.3977 83.3153 90.3977 58.8135C90.3977 34.3116 73.0442 14.449 51.6376 14.449C30.231 14.449 12.8776 34.3116 12.8776 58.8135C12.8776 83.3153 30.231 103.178 51.6376 103.178Z" fill="url(#paint0_linear_153_186)"/>
<mask id="mask0_153_186" style="mask-type:alpha" maskUnits="userSpaceOnUse" x="12" y="14" width="79" height="90">
<path d="M51.6376 103.178C73.0442 103.178 90.3977 83.3153 90.3977 58.8135C90.3977 34.3116 73.0442 14.449 51.6376 14.449C30.231 14.449 12.8776 34.3116 12.8776 58.8135C12.8776 83.3153 30.231 103.178 51.6376 103.178Z" fill="url(#paint1_linear_153_186)"/>
</mask>
<g mask="url(#mask0_153_186)">
<path fill-rule="evenodd" clip-rule="evenodd" d="M64.1 30.4383C63.6093 30.4383 63.1187 30.5509 62.6281 30.6635C61.7449 30.8887 60.8618 31.0013 60.0768 31.3391C59.5861 31.4517 59.2917 31.6769 58.8011 31.7895C58.2124 32.0147 57.7217 32.2399 57.2311 32.5777C57.0348 32.6903 56.9367 32.6903 56.8386 32.8029C56.5442 32.9155 56.3479 33.1407 56.0536 33.2533C55.3667 33.5911 54.3854 34.3793 53.6985 34.8297C52.8154 35.6179 52.3247 35.9557 51.4416 36.9691C50.6566 37.8699 49.7735 39.2211 49.1847 40.3471C49.0866 40.5723 49.0866 40.5723 48.8903 40.7975C48.7922 41.1353 47.6147 43.4999 47.3203 44.1755C46.8296 45.3015 46.339 46.4275 45.8484 47.5535C45.4559 48.4543 44.3765 50.5937 43.4933 51.9449C42.5121 53.5213 40.7458 55.2103 39.372 56.4489C38.2926 57.4623 37.3114 58.2505 36.232 59.1513L34.3676 60.6151C34.0732 60.8403 33.975 60.8403 33.6807 61.0655C33.3863 61.2908 32.6013 61.8537 31.7181 62.4167C30.6387 63.2049 29.3631 63.8806 28.2837 64.5562C27.6949 64.894 27.0081 65.3444 26.7137 65.457C26.4193 65.6822 26.4193 65.6822 26.1249 65.9074L24.7511 66.6956C24.2605 67.0334 23.3774 67.4838 22.8867 67.709C22.4942 67.9342 22.1017 68.1594 21.7092 68.3846C18.1766 70.0736 17.1954 70.6366 13.8591 73.2264C14.3497 75.028 14.3497 76.154 15.0366 77.843C17.1954 76.6044 22.4942 72.213 22.7886 72.1004C22.9849 71.7626 23.6717 71.3122 23.9661 70.9744C24.2605 70.7492 25.438 69.7358 26.4193 68.9476C27.4006 68.1594 28.4799 67.2586 29.5593 66.583C30.7369 65.6822 32.2088 64.6688 32.405 64.5562C32.7975 64.2184 34.1713 63.2049 34.6619 62.9798C34.9563 62.7546 35.2507 62.6419 35.5451 62.4167C35.7413 62.3041 35.8395 62.3042 36.0357 62.1916L38.2926 60.8404C38.587 60.6152 40.5495 59.6017 41.9233 59.0387C42.8065 58.5883 43.8858 58.2505 44.8671 57.9127C45.9465 57.5749 47.3203 57.3497 47.909 57.3497C48.4978 57.1245 53.0116 57.3497 54.1892 57.3497C54.4835 57.3497 55.0723 57.3497 55.6611 57.3497C56.6423 57.3497 57.0348 57.3497 58.0161 57.3497C58.703 57.3497 59.0955 57.2371 59.7824 57.1245C60.9599 56.8993 62.4318 56.4489 63.4131 55.8859C64.2962 55.4355 65.9644 54.4221 66.6513 53.8591C66.8475 53.7465 66.8475 53.6339 67.0438 53.5213C67.8288 52.8457 68.6138 52.1701 69.4969 51.2693C69.8894 50.8189 70.2819 50.3685 70.6744 49.9181C71.3613 49.1299 72.0482 48.1165 72.5389 47.2157C73.9126 44.8511 74.8939 41.9235 74.8939 39.1085C74.7958 36.9691 74.207 35.0549 72.9314 33.3659C72.2445 32.5777 71.1651 31.6769 70.2819 31.2265C69.3988 30.7761 68.6138 30.5509 67.6325 30.3257C66.455 30.4383 65.2775 30.3257 64.1 30.4383Z" fill="#242424"/>
<path fill-rule="evenodd" clip-rule="evenodd" d="M87.8464 40.2344L87.3557 40.577L84.3138 42.975C82.3513 44.4595 80.2906 46.1724 78.3281 47.657C76.0711 49.3699 73.9124 51.0828 71.5573 52.7957C70.9686 53.2525 70.3798 53.7092 69.8892 54.0518C69.1042 54.6228 68.4173 55.0795 67.6322 55.6505C66.5529 56.3357 64.5903 57.4776 63.8053 58.0486L61.8428 59.1905C61.4503 59.4189 61.1559 59.5331 60.7634 59.6473C60.5671 59.7615 59.8802 59.8757 59.7821 59.9899C58.8008 60.1041 57.7214 60.3325 56.6421 60.2183C55.857 60.3325 54.9739 60.2183 54.1889 60.2183C53.6001 60.2183 52.3245 60.3325 51.8338 60.4467C49.4788 60.7892 48.2032 62.2738 47.6144 62.6163H47.5163C47.2219 62.9589 47.1238 62.9589 46.7313 63.1873L41.6287 66.8415L37.213 70.2673C34.956 71.9802 32.1104 74.4925 29.8535 75.977L27.4984 77.6899L27.7928 78.375L28.0872 78.946C28.4797 78.8318 28.7741 78.6034 29.1666 78.2609C33.4841 74.835 40.8436 70.4957 45.8481 67.1841L46.4369 68.4402C46.0444 68.897 42.9043 70.9525 42.2174 71.5234C40.9418 72.437 39.568 73.3505 38.2924 74.3783C37.5073 74.9492 36.6242 75.6344 35.8392 76.2054L31.9141 78.946C31.6197 79.1744 31.5216 79.1744 31.1291 79.4028L29.7553 80.4305C29.3628 80.6589 29.3628 80.6589 28.9703 81.0015L29.6572 82.2576C34.2692 79.517 38.8811 75.977 43.3949 73.1221L47.4181 70.4957L47.9088 71.4092C47.5163 71.9802 46.3387 72.5512 45.8481 73.008C41.6287 76.2054 37.213 79.2886 32.8954 82.3718C32.6991 82.486 30.8347 83.7422 30.6385 83.9705L30.5403 84.0847C30.7366 84.4273 31.031 85.1125 31.2272 85.3409C31.4235 85.1125 31.6197 84.9983 31.9141 84.8841C35.8392 82.3718 39.7643 79.6312 43.5912 77.1189C44.4743 76.548 48.4975 73.6931 48.9882 73.5789L49.5769 74.835C48.7919 75.5202 48.2032 75.7486 47.6144 76.3196C46.3387 77.2331 45.0631 78.1467 43.7875 79.0602C43.1987 79.517 42.8062 79.8596 42.0212 80.3163C40.0586 81.6867 38.0961 83.057 36.1336 84.5415L34.3673 85.7976C33.8766 86.1402 32.3066 87.168 32.1104 87.3964C32.2085 87.7389 32.5029 88.4241 32.7973 88.6525C33.1898 88.3099 35.6429 86.7112 36.2317 86.3686C39.1755 84.5415 42.1193 82.7144 45.0631 81.0015C45.5537 80.7731 51.147 77.0047 51.3432 77.0047C51.6376 76.6622 52.0301 76.548 52.3245 76.3196C52.717 76.0912 52.9132 75.8628 53.3057 75.6344C53.8945 75.2918 54.6795 74.7209 55.1702 74.3783C57.0346 73.2363 58.5065 70.4957 59.7821 67.6409C60.469 66.3847 60.9596 65.2428 61.7446 64.1008C62.039 63.6441 62.5297 63.0731 62.9222 62.7305C63.2165 62.3879 63.9034 61.7028 64.1978 61.7028C64.3941 61.4744 64.8847 61.0176 65.1791 60.7892C68.1229 58.7337 70.8704 56.4499 73.9124 54.6228C76.3655 53.1383 78.6224 51.8821 81.1737 50.626C84.0194 49.2557 87.1595 48.3607 89.3183 46.9904C90.2014 46.4194 90.692 45.4873 91.2808 44.9163C91.2808 44.8021 91.2808 44.8021 91.2808 44.6879C91.1827 44.6879 91.1827 44.6879 91.2808 44.5737C90.8883 43.2034 88.4351 41.9473 87.8464 40.2344Z" fill="#242424"/>
</g>
<path fill-rule="evenodd" clip-rule="evenodd" d="M89.0238 45.6392C88.9258 45.752 88.9258 45.752 89.0238 45.6392V45.6392Z" fill="#FBFCFE"/>
<defs>
<linearGradient id="paint0_linear_153_186" x1="12.9496" y1="58.8187" x2="90.3858" y2="58.8187" gradientUnits="userSpaceOnUse">
<stop stop-color="#76663E"/>
<stop offset="0.33" stop-color="#93835B"/>
<stop offset="1" stop-color="#E0CD9A"/>
</linearGradient>
<linearGradient id="paint1_linear_153_186" x1="12.9496" y1="58.8187" x2="90.3858" y2="58.8187" gradientUnits="userSpaceOnUse">
<stop stop-color="#76663E"/>
<stop offset="0.33" stop-color="#93835B"/>
<stop offset="1" stop-color="#E0CD9A"/>
</linearGradient>
</defs>
</svg>
